<svg width="185" height="198" viewBox="0 0 185 198" fill="none" xmlns="http://www.w3.org/2000/svg">
<path fill-rule="evenodd" clip-rule="evenodd" d="M134.717 25.0933L110.059 7.21153C109.559 5.10833 108.349 3.24231 106.631 1.9291C104.914 0.615887 102.796 -0.0638971 100.635 0.00473094C98.4748 0.073359 96.4041 0.886186 94.7738 2.30572C93.1434 3.72526 92.0533 5.66437 91.688 7.79505L66.1767 25.0933H48V87.5855H148V25.0933H134.717ZM100.936 18.819C104.425 18.819 107.424 16.9053 109.055 14.0945L122.501 25.0933H79.5347L93.1249 14.6529C94.8189 17.1626 97.6863 18.819 100.936 18.819ZM122.915 63.2725L102.58 73.7694L79.1959 44.1547L54.1426 81.5621V31.3676H141.983V81.5621L122.909 63.2725H122.915Z" fill="#292929"/>
<path d="M129.202 49.7271C132.539 49.7271 135.244 47.022 135.244 43.685C135.244 40.348 132.539 37.6428 129.202 37.6428C125.865 37.6428 123.16 40.348 123.16 43.685C123.16 47.022 125.865 49.7271 129.202 49.7271Z" fill="#292929"/>
<path d="M59.648 123.208C59.648 125.704 59.288 128.368 58.568 131.2C57.848 133.984 56.84 136.768 55.544 139.552C54.248 142.288 52.64 144.928 50.72 147.472C48.848 149.968 46.712 152.176 44.312 154.096C41.912 155.968 39.272 157.48 36.392 158.632C33.56 159.784 30.536 160.36 27.32 160.36C26.648 160.36 25.976 160.312 25.304 160.216C24.632 160.168 23.96 160.096 23.288 160C24.584 153.376 25.856 146.92 27.104 140.632C27.584 137.992 28.088 135.256 28.616 132.424C29.144 129.544 29.648 126.712 30.128 123.928C30.608 121.144 31.064 118.48 31.496 115.936C31.976 113.392 32.36 111.088 32.648 109.024C34.712 108.64 36.8 108.28 38.912 107.944C41.024 107.608 43.184 107.44 45.392 107.44C47.984 107.44 50.168 107.848 51.944 108.664C53.768 109.48 55.232 110.608 56.336 112.048C57.488 113.488 58.328 115.168 58.856 117.088C59.384 119.008 59.648 121.048 59.648 123.208ZM42.656 117.592C42.128 120.424 41.576 123.136 41 125.728C40.424 128.32 39.848 130.936 39.272 133.576C38.696 136.216 38.12 138.976 37.544 141.856C36.968 144.736 36.416 147.88 35.888 151.288C37.04 150.52 38.144 149.488 39.2 148.192C40.304 146.848 41.336 145.312 42.296 143.584C43.256 141.856 44.12 140.032 44.888 138.112C45.704 136.192 46.4 134.32 46.976 132.496C47.552 130.672 47.984 128.968 48.272 127.384C48.608 125.8 48.776 124.432 48.776 123.28C48.776 121.504 48.272 120.112 47.264 119.104C46.304 118.096 44.768 117.592 42.656 117.592ZM55.0693 160.072C56.3653 153.688 57.6133 147.448 58.8133 141.352C59.2453 138.76 59.7253 136.072 60.2533 133.288C60.7813 130.456 61.2613 127.672 61.6933 124.936C62.1733 122.152 62.6053 119.488 62.9893 116.944C63.4213 114.352 63.7573 112 63.9973 109.888C66.7333 109.024 69.6853 108.4 72.8533 108.016C76.0213 107.584 79.1653 107.368 82.2853 107.368C84.1573 107.368 85.6933 107.584 86.8933 108.016C88.1413 108.448 89.1013 109.072 89.7733 109.888C90.4933 110.656 90.9973 111.568 91.2853 112.624C91.5733 113.68 91.7173 114.856 91.7173 116.152C91.7173 118.072 91.3813 119.968 90.7093 121.84C90.0373 123.664 89.1253 125.416 87.9733 127.096C86.8693 128.728 85.5733 130.24 84.0853 131.632C82.6453 132.976 81.0853 134.08 79.4053 134.944C80.2693 136.864 81.1813 138.976 82.1413 141.28C83.1493 143.536 84.0853 145.696 84.9493 147.76C85.9093 150.16 86.8933 152.56 87.9013 154.96L76.7413 158.848C75.7813 155.776 74.9173 152.896 74.1493 150.208C73.8133 149.104 73.4773 147.976 73.1413 146.824C72.8053 145.624 72.4933 144.496 72.2053 143.44C71.9173 142.384 71.6773 141.448 71.4853 140.632C71.2933 139.768 71.1733 139.072 71.1253 138.544L70.1893 138.832C69.9013 140.368 69.5413 142.168 69.1093 144.232C68.7253 146.296 68.3653 148.288 68.0293 150.208C67.5973 152.464 67.1653 154.744 66.7333 157.048L55.0693 160.072ZM71.9893 128.824C72.9013 128.728 74.0053 128.344 75.3013 127.672C76.6453 127 77.9173 126.208 79.1173 125.296C80.3173 124.336 81.3493 123.352 82.2133 122.344C83.0773 121.336 83.5093 120.448 83.5093 119.68C83.5093 119.152 83.3413 118.744 83.0053 118.456C82.6693 118.12 82.1893 117.88 81.5653 117.736C80.9893 117.544 80.3413 117.424 79.6213 117.376C78.9013 117.328 78.1573 117.304 77.3893 117.304C76.8613 117.304 76.3093 117.328 75.7333 117.376C75.2053 117.376 74.7253 117.376 74.2933 117.376L71.9893 128.824ZM113.269 158.56C112.069 158.752 110.749 158.968 109.309 159.208C107.869 159.448 106.573 159.664 105.421 159.856C105.613 158.272 105.805 156.712 105.997 155.176C106.141 153.832 106.261 152.488 106.357 151.144C106.501 149.8 106.621 148.648 106.717 147.688H100.453L97.5734 158.056C96.5174 158.2 95.2694 158.368 93.8294 158.56C92.3894 158.704 91.0454 158.848 89.7974 158.992C88.2614 159.184 86.7494 159.376 85.2614 159.568C87.1814 153.184 89.0774 146.896 90.9494 140.704C91.7174 138.112 92.5094 135.4 93.3254 132.568C94.1894 129.736 95.0294 126.928 95.8454 124.144C96.7094 121.312 97.5254 118.6 98.2934 116.008C99.0614 113.416 99.7334 111.04 100.309 108.88C103.573 108.64 106.885 108.352 110.245 108.016C113.653 107.68 116.965 107.224 120.181 106.648C120.037 108.184 119.869 110.104 119.677 112.408C119.533 114.664 119.389 117.136 119.245 119.824C119.101 122.512 118.957 125.32 118.813 128.248C118.669 131.176 118.525 134.056 118.381 136.888C118.141 143.512 117.877 150.544 117.589 157.984C116.149 158.224 114.709 158.416 113.269 158.56ZM102.181 140.488C102.373 140.488 102.709 140.488 103.189 140.488C103.717 140.44 104.245 140.416 104.773 140.416C105.349 140.368 105.877 140.344 106.357 140.344C106.837 140.296 107.173 140.248 107.365 140.2C107.365 139.912 107.389 139.432 107.437 138.76C107.533 138.04 107.605 137.248 107.653 136.384C107.749 135.472 107.845 134.488 107.941 133.432C108.037 132.376 108.133 131.344 108.229 130.336C108.421 127.888 108.661 125.248 108.949 122.416L109.381 116.152L108.301 116.224L106.645 122.416L102.181 140.488ZM120.874 160.288L126.346 109.168C128.602 109.072 130.714 108.856 132.682 108.52C134.698 108.136 136.69 107.872 138.658 107.728C138.658 107.776 138.586 108.28 138.442 109.24C138.298 110.152 138.106 111.376 137.866 112.912C137.626 114.4 137.362 116.104 137.074 118.024C136.786 119.896 136.354 122.488 135.778 125.8C135.25 129.112 134.53 133.696 133.618 139.552H134.698C135.946 135.136 136.978 131.536 137.794 128.752C138.61 125.92 139.258 123.64 139.738 121.912C140.266 120.136 140.746 118.432 141.178 116.8C141.658 115.168 142.09 113.656 142.474 112.264C142.906 110.872 143.242 109.696 143.482 108.736H144.13C144.994 108.736 145.858 108.688 146.722 108.592C147.634 108.496 148.474 108.4 149.242 108.304C150.058 108.16 150.898 107.992 151.762 107.8C151.666 108.232 151.546 109.12 151.402 110.464C151.306 111.808 151.162 113.44 150.97 115.36C150.778 117.232 150.586 119.32 150.394 121.624C150.202 123.88 150.01 126.112 149.818 128.32C149.626 130.48 149.434 132.544 149.242 134.512C149.098 136.48 148.954 138.16 148.81 139.552H150.106L156.946 108.592C158.578 108.352 160.186 108.136 161.77 107.944C163.162 107.752 164.602 107.56 166.09 107.368C167.578 107.176 168.898 106.96 170.05 106.72C169.33 108.736 168.61 110.992 167.89 113.488C167.17 115.936 166.426 118.528 165.658 121.264C164.89 124 164.146 126.76 163.426 129.544C162.754 132.328 162.082 135.016 161.41 137.608C159.874 143.752 158.386 150.064 156.946 156.544L140.674 159.28L143.842 131.488H142.978L135.85 157.624L120.874 160.288Z" fill="#292929"/>
</svg>
