<svg width="160" height="188" viewBox="0 0 160 188" fill="none" xmlns="http://www.w3.org/2000/svg">
<path d="M120.909 2.27273C115.864 0.681818 110.318 0 105 0C96.1364 0 86.5909 1.81818 80 6.81818C73.4091 1.81818 63.8636 0 55 0C46.1364 0 36.5909 1.81818 30 6.81818V73.4091C30 74.5454 31.1364 75.6818 32.2727 75.6818C32.7273 75.6818 32.9545 75.4545 33.4091 75.4545C39.5455 72.5 48.4091 70.4545 55 70.4545C63.8636 70.4545 73.4091 72.2727 80 77.2727C86.1364 73.4091 97.2727 70.4545 105 70.4545C112.5 70.4545 120.227 71.8182 126.591 75.2273C127.045 75.4545 127.273 75.4545 127.727 75.4545C128.864 75.4545 130 74.3182 130 73.1818V6.81818C127.273 4.77273 124.318 3.40909 120.909 2.27273ZM120.909 63.6364C115.909 62.0455 110.455 61.3636 105 61.3636C97.2727 61.3636 86.1364 64.3182 80 68.1818V15.9091C86.1364 12.0455 97.2727 9.09091 105 9.09091C110.455 9.09091 115.909 9.77273 120.909 11.3636V63.6364Z" fill="#292929"/>
<path d="M105 27.2728C109 27.2728 112.864 27.6819 116.364 28.4546V21.5455C112.773 20.8637 108.909 20.4546 105 20.4546C97.2727 20.4546 90.2727 21.7728 84.5455 24.2273V31.7728C89.6818 28.8637 96.8182 27.2728 105 27.2728ZM84.5455 36.3182V43.8637C89.6818 40.9546 96.8182 39.3637 105 39.3637C109 39.3637 112.864 39.7728 116.364 40.5455V33.6364C112.773 32.9546 108.909 32.5455 105 32.5455C97.2727 32.5455 90.2727 33.9091 84.5455 36.3182ZM105 44.6819C97.2727 44.6819 90.2727 46 84.5455 48.4546V56C89.6818 53.091 96.8182 51.5 105 51.5C109 51.5 112.864 51.9091 116.364 52.6819V45.7728C112.773 45.0455 108.909 44.6819 105 44.6819Z" fill="#292929"/>
<path d="M20.288 150.072C21.584 143.688 22.832 137.448 24.032 131.352C24.464 128.76 24.944 126.072 25.472 123.288C26 120.456 26.48 117.672 26.912 114.936C27.392 112.152 27.824 109.488 28.208 106.944C28.64 104.352 28.976 102 29.216 99.888C31.952 99.024 34.904 98.4 38.072 98.016C41.24 97.584 44.384 97.368 47.504 97.368C49.376 97.368 50.912 97.584 52.112 98.016C53.36 98.448 54.32 99.072 54.992 99.888C55.712 100.656 56.216 101.568 56.504 102.624C56.792 103.68 56.936 104.856 56.936 106.152C56.936 108.072 56.6 109.968 55.928 111.84C55.256 113.664 54.344 115.416 53.192 117.096C52.088 118.728 50.792 120.24 49.304 121.632C47.864 122.976 46.304 124.08 44.624 124.944C45.488 126.864 46.4 128.976 47.36 131.28C48.368 133.536 49.304 135.696 50.168 137.76C51.128 140.16 52.112 142.56 53.12 144.96L41.96 148.848C41 145.536 40.136 142.416 39.368 139.488C39.032 138.288 38.696 137.064 38.36 135.816C38.024 134.52 37.712 133.32 37.424 132.216C37.136 131.064 36.896 130.056 36.704 129.192C36.512 128.328 36.392 127.656 36.344 127.176L35.408 127.464C35.12 129 34.76 130.872 34.328 133.08C33.944 135.288 33.584 137.424 33.248 139.488C32.816 141.936 32.384 144.456 31.952 147.048L20.288 150.072ZM37.208 118.824C38.12 118.728 39.224 118.344 40.52 117.672C41.864 117 43.136 116.208 44.336 115.296C45.536 114.336 46.568 113.352 47.432 112.344C48.296 111.336 48.728 110.448 48.728 109.68C48.728 109.152 48.56 108.744 48.224 108.456C47.888 108.12 47.408 107.88 46.784 107.736C46.208 107.544 45.56 107.424 44.84 107.376C44.12 107.328 43.376 107.304 42.608 107.304C42.08 107.304 41.528 107.328 40.952 107.376C40.424 107.376 39.944 107.376 39.512 107.376L37.208 118.824ZM52.5682 150.072L62.0002 98.88L84.7522 96.936C84.4162 97.992 84.1282 99.072 83.8882 100.176C83.6482 101.088 83.4082 102.048 83.1682 103.056C82.9762 104.016 82.8082 104.88 82.6642 105.648C82.1842 105.696 81.4882 105.744 80.5762 105.792C79.7122 105.792 78.7762 105.816 77.7682 105.864C76.7602 105.864 75.7282 105.864 74.6722 105.864C73.6642 105.864 72.7762 105.864 72.0082 105.864L69.4882 118.752C70.9762 118.656 72.3682 118.584 73.6642 118.536C74.7202 118.488 75.8002 118.464 76.9042 118.464C78.0082 118.464 78.8242 118.44 79.3522 118.392C79.1602 119.736 78.9682 121.056 78.7762 122.352C78.6322 123.648 78.4402 124.968 78.2002 126.312C77.7202 126.36 76.9282 126.408 75.8242 126.456C74.7682 126.456 73.6882 126.48 72.5842 126.528C71.3362 126.576 69.9682 126.624 68.4802 126.672L66.0322 139.92L76.5442 138.264L75.8242 146.472L52.5682 150.072ZM103.027 148.56C101.827 148.752 100.507 148.968 99.0673 149.208C97.6273 149.448 96.3313 149.664 95.1793 149.856C95.3713 148.272 95.5633 146.712 95.7553 145.176C95.8993 143.832 96.0193 142.488 96.1153 141.144C96.2593 139.8 96.3793 138.648 96.4753 137.688H90.2113L87.3313 148.056C86.2753 148.2 85.0273 148.368 83.5873 148.56C82.1473 148.704 80.8033 148.848 79.5553 148.992C78.0193 149.184 76.5072 149.376 75.0192 149.568C76.9393 143.184 78.8353 136.896 80.7073 130.704C81.4753 128.112 82.2673 125.4 83.0833 122.568C83.9473 119.736 84.7873 116.928 85.6033 114.144C86.4673 111.312 87.2833 108.6 88.0513 106.008C88.8193 103.416 89.4913 101.04 90.0673 98.88C93.3313 98.64 96.6433 98.352 100.003 98.016C103.411 97.68 106.723 97.224 109.939 96.648C109.795 98.184 109.627 100.104 109.435 102.408C109.291 104.664 109.147 107.136 109.003 109.824C108.859 112.512 108.715 115.32 108.571 118.248C108.427 121.176 108.283 124.056 108.139 126.888C107.899 133.512 107.635 140.544 107.347 147.984C105.907 148.224 104.467 148.416 103.027 148.56ZM91.9393 130.488C92.1313 130.488 92.4673 130.488 92.9473 130.488C93.4753 130.44 94.0033 130.416 94.5312 130.416C95.1073 130.368 95.6353 130.344 96.1153 130.344C96.5953 130.296 96.9313 130.248 97.1233 130.2C97.1233 129.912 97.1473 129.432 97.1953 128.76C97.2913 128.04 97.3633 127.248 97.4113 126.384C97.5073 125.472 97.6033 124.488 97.6992 123.432C97.7953 122.376 97.8913 121.344 97.9873 120.336C98.1793 117.888 98.4193 115.248 98.7073 112.416L99.1393 106.152L98.0593 106.224L96.4033 112.416L91.9393 130.488ZM144.328 113.208C144.328 115.704 143.968 118.368 143.248 121.2C142.528 123.984 141.52 126.768 140.224 129.552C138.928 132.288 137.32 134.928 135.4 137.472C133.528 139.968 131.392 142.176 128.992 144.096C126.592 145.968 123.952 147.48 121.072 148.632C118.24 149.784 115.216 150.36 112 150.36C111.328 150.36 110.656 150.312 109.984 150.216C109.312 150.168 108.64 150.096 107.968 150C109.264 143.376 110.536 136.92 111.784 130.632C112.264 127.992 112.768 125.256 113.296 122.424C113.824 119.544 114.328 116.712 114.808 113.928C115.288 111.144 115.744 108.48 116.176 105.936C116.656 103.392 117.04 101.088 117.328 99.024C119.392 98.64 121.48 98.28 123.592 97.944C125.704 97.608 127.864 97.44 130.072 97.44C132.664 97.44 134.848 97.848 136.624 98.664C138.448 99.48 139.912 100.608 141.016 102.048C142.168 103.488 143.008 105.168 143.536 107.088C144.064 109.008 144.328 111.048 144.328 113.208ZM127.336 107.592C126.808 110.424 126.256 113.136 125.68 115.728C125.104 118.32 124.528 120.936 123.952 123.576C123.376 126.216 122.8 128.976 122.224 131.856C121.648 134.736 121.096 137.88 120.568 141.288C121.72 140.52 122.824 139.488 123.88 138.192C124.984 136.848 126.016 135.312 126.976 133.584C127.936 131.856 128.8 130.032 129.568 128.112C130.384 126.192 131.08 124.32 131.656 122.496C132.232 120.672 132.664 118.968 132.952 117.384C133.288 115.8 133.456 114.432 133.456 113.28C133.456 111.504 132.952 110.112 131.944 109.104C130.984 108.096 129.448 107.592 127.336 107.592Z" fill="#292929"/>
</svg>
