<svg width="188" height="220" viewBox="0 0 188 220" fill="none" xmlns="http://www.w3.org/2000/svg">
<path d="M157.081 1.90003L166.124 10.9428C168.625 13.444 168.625 17.4844 166.124 19.9856L138.547 47.6271V109.644H68V13.444H136.43L147.974 1.90003C150.54 -0.601174 154.58 -0.665308 157.081 1.90003ZM120.782 56.2852L155.221 21.9096L146.114 12.8027L111.739 47.2423L107.186 60.8386L120.782 56.2852Z" fill="#292929"/>
<path d="M30.952 182.288L36.424 131.168C38.68 131.072 40.792 130.856 42.76 130.52C44.776 130.136 46.768 129.872 48.736 129.728C48.736 129.776 48.664 130.28 48.52 131.24C48.376 132.152 48.184 133.376 47.944 134.912C47.704 136.4 47.44 138.104 47.152 140.024C46.864 141.896 46.432 144.488 45.856 147.8C45.328 151.112 44.608 155.696 43.696 161.552H44.776C46.024 157.136 47.056 153.536 47.872 150.752C48.688 147.92 49.336 145.64 49.816 143.912C50.344 142.136 50.824 140.432 51.256 138.8C51.736 137.168 52.168 135.656 52.552 134.264C52.984 132.872 53.32 131.696 53.56 130.736H54.208C55.072 130.736 55.936 130.688 56.8 130.592C57.712 130.496 58.552 130.4 59.32 130.304C60.136 130.16 60.976 129.992 61.84 129.8C61.744 130.232 61.624 131.12 61.48 132.464C61.384 133.808 61.24 135.44 61.048 137.36C60.856 139.232 60.664 141.32 60.472 143.624C60.28 145.88 60.088 148.112 59.896 150.32C59.704 152.48 59.512 154.544 59.32 156.512C59.176 158.48 59.032 160.16 58.888 161.552H60.184L67.024 130.592C68.656 130.352 70.264 130.136 71.848 129.944C73.24 129.752 74.68 129.56 76.168 129.368C77.656 129.176 78.976 128.96 80.128 128.72C79.408 130.736 78.688 132.992 77.968 135.488C77.248 137.936 76.504 140.528 75.736 143.264C74.968 146 74.224 148.76 73.504 151.544C72.832 154.328 72.16 157.016 71.488 159.608C69.952 165.752 68.464 172.064 67.024 178.544L50.752 181.28L53.92 153.488H53.056L45.928 179.624L30.952 182.288ZM71.5302 182.072C72.8262 175.688 74.0742 169.448 75.2742 163.352C75.7062 160.76 76.1862 158.072 76.7142 155.288C77.2422 152.456 77.7222 149.672 78.1542 146.936C78.6342 144.152 79.0662 141.488 79.4502 138.944C79.8822 136.352 80.2182 134 80.4582 131.888C83.1942 131.024 86.1462 130.4 89.3142 130.016C92.4822 129.584 95.6262 129.368 98.7462 129.368C100.618 129.368 102.154 129.584 103.354 130.016C104.602 130.448 105.562 131.072 106.234 131.888C106.954 132.656 107.458 133.568 107.746 134.624C108.034 135.68 108.178 136.856 108.178 138.152C108.178 140.072 107.842 141.968 107.17 143.84C106.498 145.664 105.586 147.416 104.434 149.096C103.33 150.728 102.034 152.24 100.546 153.632C99.1062 154.976 97.5462 156.08 95.8662 156.944C96.7302 158.864 97.6422 160.976 98.6022 163.28C99.6102 165.536 100.546 167.696 101.41 169.76C102.37 172.16 103.354 174.56 104.362 176.96L93.2022 180.848C92.2422 177.776 91.3782 174.896 90.6102 172.208C90.2742 171.104 89.9382 169.976 89.6022 168.824C89.2662 167.624 88.9542 166.496 88.6662 165.44C88.3782 164.384 88.1382 163.448 87.9462 162.632C87.7542 161.768 87.6342 161.072 87.5862 160.544L86.6502 160.832C86.3622 162.368 86.0022 164.168 85.5702 166.232C85.1862 168.296 84.8262 170.288 84.4902 172.208C84.0582 174.464 83.6262 176.744 83.1942 179.048L71.5302 182.072ZM88.4502 150.824C89.3622 150.728 90.4662 150.344 91.7622 149.672C93.1062 149 94.3782 148.208 95.5782 147.296C96.7782 146.336 97.8102 145.352 98.6742 144.344C99.5382 143.336 99.9702 142.448 99.9702 141.68C99.9702 141.152 99.8022 140.744 99.4662 140.456C99.1302 140.12 98.6502 139.88 98.0262 139.736C97.4502 139.544 96.8022 139.424 96.0822 139.376C95.3622 139.328 94.6182 139.304 93.8502 139.304C93.3222 139.304 92.7702 139.328 92.1942 139.376C91.6662 139.376 91.1862 139.376 90.7542 139.376L88.4502 150.824ZM115.474 180.56C115.042 180.56 114.178 180.632 112.882 180.776C111.634 180.872 110.338 181.016 108.994 181.208C107.65 181.352 106.426 181.496 105.322 181.64C104.266 181.784 103.69 181.88 103.594 181.928C104.074 179.864 104.554 177.584 105.034 175.088C105.562 172.544 106.09 169.904 106.618 167.168C107.146 164.384 107.65 161.576 108.13 158.744C108.61 155.912 109.066 153.176 109.498 150.536C110.506 144.392 111.514 138.08 112.522 131.6L123.754 129.8C122.65 136.232 121.57 142.544 120.514 148.736C120.082 151.376 119.626 154.112 119.146 156.944C118.714 159.776 118.258 162.584 117.778 165.368C117.346 168.152 116.938 170.864 116.554 173.504C116.17 176.096 115.81 178.448 115.474 180.56ZM124.269 182.072C125.373 176.792 126.429 171.584 127.437 166.448C127.869 164.288 128.301 162.032 128.733 159.68C129.165 157.328 129.573 155.024 129.957 152.768C130.389 150.464 130.749 148.256 131.037 146.144C131.373 143.984 131.661 142.016 131.901 140.24C130.797 140.096 129.669 140.048 128.517 140.096C127.413 140.144 126.309 140 125.205 139.664C125.253 138.896 125.277 138.008 125.277 137C125.277 135.992 125.301 134.984 125.349 133.976C125.397 132.872 125.445 131.696 125.493 130.448C126.741 130.544 127.989 130.616 129.237 130.664C130.485 130.712 131.733 130.736 132.981 130.736C135.429 130.736 137.781 130.688 140.037 130.592C142.341 130.448 144.453 130.304 146.373 130.16C148.341 129.968 150.261 129.752 152.133 129.512L151.341 133.4C151.101 134.504 150.861 135.632 150.621 136.784C150.429 137.936 150.237 138.92 150.045 139.736C148.989 140.024 147.909 140.24 146.805 140.384C145.749 140.48 144.693 140.624 143.637 140.816C143.301 142.448 142.941 144.272 142.557 146.288C142.173 148.256 141.789 150.32 141.405 152.48C141.069 154.592 140.733 156.752 140.397 158.96C140.061 161.168 139.725 163.28 139.389 165.296C138.621 170.048 137.901 174.968 137.229 180.056L124.269 182.072ZM144.451 182.072L153.883 130.88L176.635 128.936C176.299 129.992 176.011 131.072 175.771 132.176C175.531 133.088 175.291 134.048 175.051 135.056C174.859 136.016 174.691 136.88 174.547 137.648C174.067 137.696 173.371 137.744 172.459 137.792C171.595 137.792 170.659 137.816 169.651 137.864C168.643 137.864 167.611 137.864 166.555 137.864C165.547 137.864 164.659 137.864 163.891 137.864L161.371 150.752C162.859 150.656 164.251 150.584 165.547 150.536C166.603 150.488 167.683 150.464 168.787 150.464C169.891 150.464 170.707 150.44 171.235 150.392C171.043 151.736 170.851 153.056 170.659 154.352C170.515 155.648 170.323 156.968 170.083 158.312C169.603 158.36 168.811 158.408 167.707 158.456C166.651 158.456 165.571 158.48 164.467 158.528C163.219 158.576 161.851 158.624 160.363 158.672L157.915 171.92L168.427 170.264L167.707 178.472L144.451 182.072Z" fill="#292929"/>
</svg>
