<svg width="47" height="55" viewBox="0 0 47 55" fill="none" xmlns="http://www.w3.org/2000/svg">
<path d="M6 5.62723C6 4.78071 6.98618 4.31712 7.63802 4.85721L23.5 18V48.4715C23.5 49.3007 22.5488 49.7697 21.891 49.2647L6.78203 37.6643C6.289 37.2858 6 36.6996 6 36.078V5.62723Z" fill="#99E1EF"/>
<path d="M0 9.76085C0 8.26813 1.57604 7.30149 2.90659 7.97813L22 17.688V52.6477C22 53.4431 21.1164 53.9202 20.4514 53.4838L0.902761 40.6563C0.339352 40.2866 0 39.658 0 38.9841V9.76085Z" fill="#0099B8"/>
<path d="M40 5.7558C40 4.8884 38.9712 4.43234 38.3285 5.01481L24 18V48.3544C24 49.204 24.9925 49.6666 25.6431 49.1202L39.2862 37.6634C39.7387 37.2833 40 36.7227 40 36.1318V5.7558Z" fill="#99E1EF"/>
<path d="M35.5 3.19317C35.5 2.21354 34.2374 1.81813 33.6786 2.62277L23 18V47.9481C23 48.8577 24.1158 49.2949 24.7338 48.6275L34.9675 37.5751C35.3098 37.2054 35.5 36.7201 35.5 36.2163V3.19317Z" fill="#99E1EF"/>
<path d="M47 9.76085C47 8.26813 45.424 7.30149 44.0934 7.97813L25 17.688V52.6477C25 53.4431 25.8836 53.9202 26.5486 53.4838L46.0972 40.6563C46.6606 40.2866 47 39.658 47 38.9841V9.76085Z" fill="#00B9DE"/>
<rect x="21.25" y="17.75" width="4.5" height="36.5" rx="0.75" fill="#99E1EF" stroke="#0099B8" stroke-width="0.5"/>
</svg>
