<svg width="44" height="44" viewBox="0 0 44 44" fill="none" xmlns="http://www.w3.org/2000/svg">
    <rect y="6" width="42.25" height="38" rx="7" fill="#6926AD"/>
    <path fill-rule="evenodd" clip-rule="evenodd" d="M38.7886 5.76601C37.8326 5.27629 36.7493 5 35.6014 5H7C3.13401 5 0 8.134 0 12V36.6457C0 37.6496 0.184904 38.6103 0.522511 39.4956L38.7886 5.76601Z" fill="#9362C4"/>
    <path d="M8 2C8 0.89543 8.89543 0 10 0H11C12.1046 0 13 0.895431 13 2V6H8V2Z" fill="#8751BE"/>
    <path d="M34 2C34 0.89543 34.8954 0 36 0H37C38.1046 0 39 0.895431 39 2V6H34V2Z" fill="#8751BE"/>
    <rect x="3" y="5" width="41" height="35" rx="7" fill="#DAC9EB"/>
    <rect x="7" y="11" width="6" height="6" rx="1" fill="#FAF4FF"/>
    <rect x="7" y="19" width="6" height="6" rx="1" fill="#FAF4FF"/>
    <rect x="16" y="19" width="6" height="6" rx="1" fill="#FAF4FF"/>
    <rect x="25" y="19" width="6" height="6" rx="1" fill="#FAF4FF"/>
    <rect x="34" y="19" width="6" height="6" rx="1" fill="#FAF4FF"/>
    <rect x="7" y="27" width="6" height="6" rx="1" fill="#FAF4FF"/>
    <rect x="16" y="27" width="6" height="6" rx="1" fill="#FAF4FF"/>
    <rect x="25" y="27" width="6" height="6" rx="1" fill="#FAF4FF"/>
    <rect x="34" y="27" width="6" height="6" rx="1" fill="#FAF4FF"/>
    <rect x="16" y="11" width="6" height="6" rx="1" fill="#FAF4FF"/>
    <rect x="25" y="11" width="6" height="6" rx="1" fill="#FAF4FF"/>
    <rect x="34" y="11" width="6" height="6" rx="1" fill="#FAF4FF"/>
</svg>
