<svg width="52" height="53" viewBox="0 0 52 53" fill="none" xmlns="http://www.w3.org/2000/svg">
    <circle cx="27.9742" cy="28.0879" r="24" fill="#F44B9D"/>
    <path fill-rule="evenodd" clip-rule="evenodd" d="M39.8728 7.3209C37.5081 5.92773 34.8612 4.91528 32.0021 4.38407C18.9703 1.96281 6.46319 10.4561 4.06675 23.3543C2.2038 33.3812 6.99934 43.1184 15.349 48.0943L39.8728 7.3209Z" fill="#C90D68"/>
    <circle cx="27.9742" cy="28.0879" r="20" fill="#FCCFE5"/>
    <path fill-rule="evenodd" clip-rule="evenodd" d="M39.8998 20.8755C40.5645 19.9933 40.3882 18.7393 39.506 18.0746C38.6238 17.4099 37.3698 17.5862 36.7051 18.4684L25.547 33.2774L20.1792 27.8518C19.4024 27.0666 18.1361 27.0598 17.3508 27.8366C16.5656 28.6135 16.5588 29.8798 17.3357 30.665L24.208 37.6114C24.9345 38.3457 26.0892 38.3992 26.878 37.7676C27.1666 37.6338 27.4273 37.429 27.6321 37.1572L39.8998 20.8755Z" fill="#C90D68"/>
</svg>
