<svg width="20" height="15" viewBox="0 0 20 15" fill="none" xmlns="http://www.w3.org/2000/svg">
    <path fill-rule="evenodd" clip-rule="evenodd" d="M20 10.3226C20 11.9421 19.6387 13.4745 18.9947 14.8386H1.00526C0.361309 13.4745 0 11.9421 0 10.3226C0 4.62158 4.47715 0 10 0C15.5228 0 20 4.62158 20 10.3226ZM10 12.2579C10.8908 12.2579 11.6129 11.5358 11.6129 10.645C11.6129 10.3504 11.5339 10.0742 11.396 9.8365L10 6.45153L8.60409 9.83649C8.46612 10.0742 8.38712 10.3504 8.38712 10.645C8.38712 11.5358 9.10924 12.2579 10 12.2579ZM17.5806 11.2902C18.2041 11.2902 18.7096 10.7847 18.7096 10.1611C18.7096 9.53758 18.2041 9.03209 17.5806 9.03209C16.957 9.03209 16.4515 9.53758 16.4515 10.1611C16.4515 10.7847 16.957 11.2902 17.5806 11.2902ZM11.2902 3.06462C11.2902 3.68817 10.7847 4.19366 10.1611 4.19366C9.53758 4.19366 9.03209 3.68817 9.03209 3.06462C9.03209 2.44108 9.53758 1.93559 10.1611 1.93559C10.7847 1.93559 11.2902 2.44108 11.2902 3.06462ZM15.3225 6.45151C15.946 6.45151 16.4515 5.94603 16.4515 5.32248C16.4515 4.69893 15.946 4.19345 15.3225 4.19345C14.6989 4.19345 14.1934 4.69893 14.1934 5.32248C14.1934 5.94603 14.6989 6.45151 15.3225 6.45151ZM6.1288 5.32248C6.1288 5.94603 5.62332 6.45151 4.99977 6.45151C4.37622 6.45151 3.87074 5.94603 3.87074 5.32248C3.87074 4.69893 4.37622 4.19345 4.99977 4.19345C5.62332 4.19345 6.1288 4.69893 6.1288 5.32248ZM3.06462 11.2902C3.68817 11.2902 4.19366 10.7847 4.19366 10.1611C4.19366 9.53758 3.68817 9.03209 3.06462 9.03209C2.44108 9.03209 1.93559 9.53758 1.93559 10.1611C1.93559 10.7847 2.44108 11.2902 3.06462 11.2902Z" fill="#00B9DE"/>
</svg>
