<svg width="50" height="50" viewBox="0 0 50 50" fill="none" xmlns="http://www.w3.org/2000/svg">
<circle cx="25" cy="25" r="25" fill="white"/>
<mask id="mask0" mask-type="alpha" maskUnits="userSpaceOnUse" x="0" y="0" width="50" height="50">
<circle cx="25" cy="25" r="25" fill="white"/>
</mask>
<g mask="url(#mask0)">
<path d="M37.6237 11.2706C37.5032 10.3383 36.7805 9.67232 36.0337 9.76111C35.287 9.8499 34.7811 10.6712 34.9015 11.6036C35.022 12.5359 35.7447 13.2018 36.4915 13.113C37.2382 13.0242 37.7441 12.2029 37.6237 11.2706Z" fill="#693C30"/>
<path d="M37.0933 13.9565C36.9247 12.7356 35.9852 11.8477 34.9975 11.9809C34.0098 12.0919 33.3353 13.1796 33.528 14.4005C33.6967 15.6214 34.6362 16.5093 35.6238 16.3761C36.6115 16.2651 37.286 15.1774 37.0933 13.9565Z" fill="#693C30"/>
<path d="M37.9846 16.8199C37.7678 15.2217 36.5151 14.0452 35.2143 14.2006C33.9134 14.3559 33.0221 15.7766 33.263 17.3749C33.4798 18.9732 34.7325 20.1497 36.0333 19.9943C37.3342 19.8389 38.2255 18.4182 37.9846 16.7977V16.8199Z" fill="#693C30"/>
<path d="M40.8276 53.4912L30.9507 54.1794C31.1434 47.187 29.1199 39.5508 27.3613 33.6017L32.2034 31.848C32.2034 31.848 42.7307 34.1344 40.8276 53.4912Z" fill="#9A3A49"/>
<path d="M34.8779 32.1591C49.6932 38.6409 43.9357 49.3848 41.9122 52.7368L34.8779 32.1591Z" fill="#BC4A59"/>
<path d="M36.8533 33.6685L34.6612 33.3134L34.2998 35.178L36.5161 35.5332L36.8533 33.6685Z" fill="#B06E90"/>
<path d="M31.6736 28.8513L29.2646 28.7404V32.8248L32.2759 32.4475L31.6736 28.8513Z" fill="#F8BE84"/>
<path d="M18.1592 46.3214C19.6768 43.6132 25.0248 34.2234 28.4456 32.9137L27.9397 36.1546C27.9397 36.1546 23.0012 39.5509 18.7373 46.5656L18.1592 46.3436V46.3214Z" fill="#B06E90"/>
<path d="M27.1206 35.511C25.3861 36.9539 21.9172 40.9051 18.9541 45.7887L18.5446 45.6334C18.4001 45.8997 18.2555 46.1439 18.1592 46.3437L18.7373 46.5657C21.9172 41.3491 25.4343 38.1526 27.0483 36.8429C27.1929 36.7097 27.217 35.7108 27.1206 35.5332V35.511Z" fill="#965A7D"/>
<path d="M21.3146 43.5687L19.9414 42.6808L19.2188 43.5465L20.7846 44.6786L21.3146 43.5687Z" fill="#894D6D"/>
<path d="M35.4067 42.9696C35.768 39.2403 35.8885 33.4022 34.6358 32.5143C32.8773 31.2712 28.6134 32.1369 27.2643 33.6686C26.2044 34.8895 28.1075 37.753 26.1803 44.7676C24.9517 48.4081 22.8077 53.5359 20.7119 57.9978L21.2901 57.9312C22.7355 55.5338 25.8912 51.0497 27.987 48.0974C29.5529 47.1206 31.5282 46.9431 32.6364 48.1418C33.3591 51.4715 34.2022 55.6891 34.5154 58.02H34.9972C34.8044 52.8034 35.2622 46.6767 35.3585 42.9918L35.4067 42.9696Z" fill="#B06E90"/>
<path d="M28.8311 39.6621H33.649L30.9991 36.3102L28.8311 39.6621Z" fill="#EBACCD"/>
<path d="M32.2035 47.7643L34.8775 46.5434L35.0702 44.8785L31.2881 47.2537L32.2035 47.7643Z" fill="#965A7D"/>
<path d="M25.8682 45.8994L28.2771 47.7863L29.8671 47.2313L26.0368 44.9227L25.8682 45.8994Z" fill="#965A7D"/>
<path d="M27.2656 48.1858C25.3144 51.0938 22.4236 55.4668 21.0264 57.953L21.3154 57.9086C22.7608 55.5112 25.9166 51.0272 28.0124 48.0748C28.6628 47.6753 29.3615 47.4089 30.036 47.3201C29.1206 47.2757 28.1329 47.6087 27.2656 48.1858Z" fill="#965A7D"/>
<path d="M34.6356 32.5364C33.937 32.048 32.877 31.8926 31.7207 31.9592C32.3711 32.0258 32.9493 32.1812 33.3829 32.4698C34.6597 33.3133 34.7319 39.1514 34.491 42.8807C34.491 46.5878 34.226 52.7145 34.5874 57.9089H34.5151L34.5392 57.9977H35.021C34.8283 52.7811 35.286 46.6544 35.3824 42.9695C35.7437 39.2402 35.8642 33.4021 34.6115 32.5142L34.6356 32.5364Z" fill="#965A7D"/>
<path d="M34.8057 42.6587C34.6852 42.6587 34.5648 42.6587 34.4202 42.6809C33.6012 42.7475 32.3485 42.8363 32.0835 39.7286C31.939 37.9971 34.7575 38.0637 34.7575 38.0637L34.8057 42.6587Z" fill="#965A7D"/>
<path d="M25.8428 45.5888L29.3599 47.4757H31.6966L35.3342 45.4778L35.3823 44.3013L26.0596 44.2347L25.8428 45.5888Z" fill="#FFDA65"/>
<path d="M34.1551 44.2792C33.6251 45.1671 32.4929 45.9662 31.0716 46.388C28.7589 47.0317 26.4945 46.4102 26.0127 44.9895C25.9886 44.9451 25.9886 44.9007 25.9886 44.8785L25.8682 45.5889L29.3853 47.4979H31.722L35.3355 45.5001L35.3836 44.3236H34.1551V44.2792Z" fill="#EDC251"/>
<path d="M18.063 50.1172C19.1471 49.4735 21.6765 45.6998 21.6283 45.1005C21.5801 44.5011 19.4121 42.7031 18.4003 42.8362C17.3885 42.9694 14.5459 46.6543 14.4977 47.5867C14.4495 48.519 17.0753 50.7166 18.063 50.1172Z" fill="#EEB167"/>
<path d="M19.9896 43.4135C20.1823 44.9895 18.8815 44.9673 17.942 44.9451C17.5324 44.9451 17.1711 44.9229 17.0506 45.0561C14.3767 47.6533 17.4361 50.1839 18.5442 49.5402C19.5801 48.9408 21.8686 45.4779 21.7482 44.9451C21.6759 44.6344 20.8568 43.924 19.9655 43.4357L19.9896 43.4135Z" fill="#D79550"/>
<path d="M16.8343 49.1183C16.8103 49.074 16.8103 49.0518 16.7862 49.0074C16.8343 49.0518 16.8584 49.074 16.9066 49.1183H16.8343ZM16.208 46.166C16.208 46.0772 16.208 45.9884 16.208 45.8996L16.3044 45.9884C16.2803 46.055 16.2321 46.1216 16.208 46.1882V46.166ZM16.208 45.3225C16.208 45.1893 16.208 45.0339 16.2321 44.9007L17.8943 44.1682L17.8461 43.0804H18.1111L18.2075 43.1026L18.2556 44.2569L18.882 44.9007C18.7374 44.9229 18.617 44.9229 18.4724 44.9229L18.0629 44.5011L16.2321 45.3003L16.208 45.3225Z" fill="#E2944E"/>
<path d="M16.9066 49.1184C16.8584 49.0962 16.8343 49.0518 16.7862 49.0074C16.7621 48.9408 16.7139 48.852 16.6898 48.7632L17.3884 48.741L17.1475 47.0983L16.208 46.3214C16.208 46.277 16.208 46.2326 16.208 46.1882C16.2321 46.1216 16.2803 46.055 16.3044 45.9884L17.292 46.832L18.7856 45.3003L18.4483 44.9673C18.5929 44.9673 18.7133 44.9451 18.8579 44.9451L19.0747 45.1671L20.3514 44.4124L20.3755 44.8341L19.0747 45.5889L19.0506 45.5667L18.5447 46.0994L19.7492 47.2981L20.4478 46.7876L20.4719 47.1649L20.5201 47.1871L19.7733 47.7421L18.3279 46.3214L17.5088 47.1649L17.7738 49.0962L16.9066 49.1184Z" fill="#CD7E40"/>
<path d="M34.8542 37.5311C35.5288 37.3313 35.9383 36.9983 35.7937 36.8207C35.6492 36.6431 34.9988 36.6653 34.3483 36.8651C33.6738 37.0649 33.2643 37.3979 33.4088 37.5755C33.5534 37.7531 34.2038 37.7309 34.8542 37.5311Z" fill="#F8C894"/>
<path d="M33.4562 38.3523C33.5285 38.0193 33.384 37.7085 33.1431 37.6641C32.9022 37.6197 32.6613 37.8639 32.589 38.2191C32.5167 38.5521 32.6613 38.8628 32.9022 38.9072C33.1431 38.9516 33.384 38.7075 33.4562 38.3523Z" fill="#F8C894"/>
<path d="M33.4805 39.3957C33.4565 39.0405 33.2156 38.7741 32.9746 38.7963C32.7337 38.8185 32.5651 39.1071 32.5892 39.4623C32.6133 39.8174 32.8542 40.0838 33.0951 40.0616C33.336 40.0394 33.5046 39.7509 33.4805 39.3957Z" fill="#F8C894"/>
<path d="M33.8169 40.439C33.6964 40.106 33.4314 39.8841 33.1905 39.9507C32.9496 40.0173 32.8533 40.328 32.9737 40.6832C33.0942 41.0162 33.3592 41.2382 33.6001 41.1716C33.841 41.105 33.9373 40.7942 33.8169 40.4612V40.439Z" fill="#F8C894"/>
<path d="M33.8166 41.1935C34.8284 41.3932 38.2491 40.6829 38.5623 40.2833C38.8754 39.8838 38.6104 37.3532 37.9359 36.8648C37.2614 36.3765 33.7443 37.0868 33.1903 37.6417C32.6121 38.1967 32.8771 41.0159 33.8166 41.2157V41.1935Z" fill="#EEB167"/>
<path d="M37.9602 36.8647C37.8157 36.7537 37.5266 36.7094 37.1653 36.7094C37.4302 37.6417 37.4784 38.8848 37.2616 39.1733C36.9966 39.5285 34.3949 40.1057 33.0459 40.1279C33.1904 40.6828 33.4554 41.149 33.8168 41.2156C34.8285 41.4154 38.2493 40.705 38.5625 40.3055C38.8756 39.9059 38.6106 37.3753 37.9361 36.8869L37.9602 36.8647Z" fill="#D79550"/>
<path d="M36.4678 40.9715C36.54 40.9493 36.6364 40.9493 36.7087 40.9271V40.9493C36.6364 40.9715 36.5641 40.9715 36.4919 40.9937L36.4678 40.9715Z" fill="#91353C"/>
<path d="M34.4438 39.9725L34.2029 39.6174L33.0466 39.8393L33.0225 39.5952V39.5064L34.251 39.2844L35.0701 38.3299L34.1065 37.2199L34.5642 37.1312L35.5519 38.2633L35.5278 38.2855L36.1541 38.7072L37.0214 37.6861C37.0455 37.8193 37.0936 37.9525 37.1177 38.0857L36.4432 38.8848L37.0696 39.3066C36.9491 39.351 36.8046 39.4176 36.6359 39.4842L35.2869 38.5962L34.5642 39.4398L34.8774 39.9281C34.7328 39.9503 34.5883 39.9725 34.4438 39.9947V39.9725ZM36.8046 36.9092L36.66 36.776L36.7564 36.7538C36.7805 36.7982 36.7805 36.8648 36.8046 36.9092Z" fill="#E2944E"/>
<path d="M35.1901 41.127L34.4434 39.9949C34.5879 39.9727 34.7324 39.9505 34.877 39.9283L35.6479 41.1048C35.5033 41.127 35.3588 41.127 35.2142 41.1492L35.1901 41.127ZM36.2501 41.016L37.0932 39.8173L36.6114 39.4843C36.7801 39.4178 36.9487 39.3734 37.0451 39.3068L37.3823 39.5287C37.4064 39.6397 37.4305 39.7729 37.4305 39.9061H37.4064L36.6837 40.905C36.6114 40.9272 36.5392 40.9494 36.4428 40.9494C36.3705 40.9716 36.2983 40.9716 36.226 40.9938L36.2501 41.016Z" fill="#CD7E40"/>
<path d="M32.2041 31.848C33.7699 32.3586 39.3347 32.2698 37.5521 55.3337C37.5521 55.3337 42.3459 55.5779 43.2373 55.2449C45.0922 36.9758 39.0938 31.959 32.2041 31.8702V31.848Z" fill="#E35468"/>
<path d="M42.2004 39.2844C42.5618 41.3933 42.1282 43.1247 40.8273 43.8351C40.0083 44.3012 38.9483 44.279 37.8402 43.8794C37.9847 46.854 37.9365 50.6055 37.5752 55.3337C37.5752 55.3337 42.3691 55.5779 43.2604 55.2449C43.9831 48.0305 43.5013 42.8805 42.2004 39.2844Z" fill="#CE5461"/>
<path d="M17.2202 45.5222C16.4011 44.9894 15.558 44.7452 15.293 45.1004C15.0039 45.4556 15.4616 46.2103 16.2807 46.7431C17.0997 47.2758 17.5575 47.2758 17.8465 46.9206C18.1356 46.5655 18.0633 46.0771 17.2443 45.5222H17.2202Z" fill="#F8C894"/>
<path d="M14.5692 47.0096C14.1597 47.5423 14.0393 48.1417 14.4488 48.3859C14.8583 48.6301 15.5087 48.4081 15.9183 47.8753C16.3278 47.3426 16.2555 46.9874 15.846 46.7432C15.4365 46.4768 14.9788 46.4768 14.5692 47.0096Z" fill="#F8C894"/>
<path d="M15.7987 48.0529C15.3892 48.5857 15.2687 49.185 15.6783 49.4292C16.0878 49.6956 16.7382 49.4514 17.1478 48.9186C17.5573 48.3859 17.485 48.0307 17.0755 47.7865C16.666 47.5202 16.2083 47.5202 15.7987 48.0529Z" fill="#F8C894"/>
<path d="M17.1952 48.7189C16.7857 49.2517 16.6652 49.851 17.0748 50.0952C17.4843 50.3616 18.1347 50.1174 18.5442 49.5847C18.9538 49.0519 18.8815 48.6967 18.472 48.4526C18.0624 48.1862 17.6047 48.1862 17.1952 48.7189Z" fill="#F8C894"/>
<path d="M16.9301 45.7664C17.7491 45.2115 18.255 44.5456 17.9659 44.1904C17.6769 43.8352 16.7855 43.9906 15.9665 44.5456C15.1474 45.1005 15.027 45.5001 15.3161 45.8552C15.6051 46.2104 16.1351 46.2992 16.9542 45.7443L16.9301 45.7664Z" fill="#F8C894"/>
<path d="M29.1921 32.4252L31.9142 35.3554L32.5165 31.9146C31.5047 31.7592 30.5411 31.959 29.168 32.4252H29.1921Z" fill="#FFDA65"/>
<path d="M17.2674 48.2526C17.3397 48.1416 17.1951 47.9418 16.9542 47.7864C16.7133 47.631 16.4484 47.5867 16.3761 47.6976C16.3038 47.8086 16.4484 48.0084 16.6893 48.1638C16.9302 48.3192 17.1951 48.3636 17.2674 48.2526Z" fill="#EEB167"/>
<path d="M18.5926 48.9851C18.6649 48.8741 18.5203 48.6744 18.2794 48.519C18.0385 48.3636 17.7736 48.3192 17.7013 48.4302C17.629 48.5412 17.7736 48.741 18.0144 48.8963C18.2553 49.0517 18.5203 49.0961 18.5926 48.9851Z" fill="#EEB167"/>
<path d="M16.0145 47.298C16.0868 47.187 15.9422 46.9872 15.7013 46.8318C15.4604 46.6765 15.1954 46.6321 15.1232 46.7431C15.0509 46.854 15.1954 47.0538 15.4363 47.2092C15.6772 47.3646 15.9422 47.409 16.0145 47.298Z" fill="#EEB167"/>
<path d="M29.5293 45.1448H31.6492V44.5011H29.5293V45.1448Z" fill="#B06E90"/>
<path d="M28.6375 32.6252C28.4689 31.9592 27.8426 32.603 27.2885 32.7362C26.7344 32.8694 26.6863 33.2245 26.7585 33.4465C26.9272 34.1125 27.3849 34.1791 27.963 34.0459C28.5171 33.9127 28.8303 33.2689 28.6616 32.6252H28.6375Z" fill="#BC4A59"/>
<path d="M27.9881 33.2688C27.964 33.1356 27.7713 33.069 27.6027 33.1134C27.41 33.1578 27.2895 33.291 27.3136 33.402C27.3377 33.5352 27.5304 33.6018 27.699 33.5574C27.8918 33.513 28.0122 33.3798 27.9881 33.2688Z" fill="#FFDA65"/>
<path d="M29.2406 32.4696L29.1924 32.4252L29.2406 32.4696Z" fill="#B3A6A1"/>
<path d="M26.9525 34.512C26.7357 34.4898 26.5189 34.4676 26.3262 34.4454C26.543 34.2457 26.7598 34.0459 26.9525 33.8683C27.0007 33.9127 27.0248 33.9571 27.073 33.9793C27.0007 34.1347 26.9525 34.3123 26.9284 34.512H26.9525Z" fill="#7E4E5F"/>
<path d="M28.517 34.5786C27.9629 34.5786 27.433 34.5564 26.9512 34.512C26.9753 34.3122 27.0234 34.1346 27.0957 33.9792C27.2162 34.068 27.3848 34.1124 27.5534 34.1124C27.6739 34.1124 27.8184 34.0902 27.9629 34.068C28.4929 33.9348 28.8061 33.3577 28.6856 32.7139C28.8784 32.6251 29.0711 32.5586 29.2638 32.4698L31.0946 34.4232H31.0705C30.1792 34.5342 29.3361 34.5786 28.5411 34.5786H28.517ZM32.1305 34.2678L32.5159 32.0702C32.8532 32.159 33.1423 32.27 33.4073 32.4476C33.7204 32.6473 33.9613 33.1357 34.13 33.8239C33.5277 34.0014 32.8532 34.1346 32.1305 34.2678Z" fill="#7E4E5F"/>
<path d="M34.1306 33.8461C33.9379 33.1579 33.7211 32.6696 33.4079 32.4698C33.167 32.2922 32.8539 32.1812 32.5166 32.0924L32.5407 31.9592C33.1911 32.1368 34.1788 32.381 35.1424 33.5353C34.8292 33.6463 34.492 33.7573 34.1306 33.8461Z" fill="#6E4354"/>
<path d="M32.251 31.8705C32.2269 31.8705 32.2028 31.8705 32.1787 31.8705H32.2028C32.2269 31.8705 32.2269 31.8705 32.251 31.8927V31.8705Z" fill="#6F3139"/>
<path d="M29.2646 32.4031V31.0934C29.4815 31.0934 29.6742 31.0934 29.891 31.0934C30.6378 31.0934 31.3605 31.049 32.035 31.0046L32.1795 31.8704C32.0832 31.8704 31.9627 31.8482 31.8664 31.8482C31.0955 31.8482 30.3246 32.0479 29.2887 32.3809L29.2646 32.4031Z" fill="#B07E59"/>
<path d="M34.9261 32.181C34.902 32.181 34.902 32.181 34.8779 32.181L34.9261 32.2032V32.181Z" fill="#863940"/>
<path d="M35.1431 33.5131C34.1795 32.3588 33.1918 32.1146 32.5414 31.937V31.8926C32.445 31.8704 32.3486 31.8704 32.2523 31.8482C32.2282 31.8482 32.2282 31.8482 32.2041 31.826C33.1195 31.8482 34.0108 31.937 34.8781 32.1368C34.9022 32.1368 34.9022 32.1368 34.9263 32.1368C35.5285 32.2922 36.1307 32.492 36.7089 32.7362C36.2994 33.0026 35.7694 33.2467 35.1431 33.4687V33.5131Z" fill="#A13F48"/>
<path d="M31.047 34.4233L29.2161 32.4698L29.168 32.4254L29.2402 32.4032C30.2761 32.0703 31.047 31.8705 31.8178 31.8705C31.9142 31.8705 32.0346 31.8705 32.131 31.8927C32.1551 31.8927 32.1792 31.8927 32.2033 31.8927C32.2996 31.8927 32.396 31.9149 32.4924 31.9371V31.9815L32.4683 32.1147L32.0828 34.3123C31.7456 34.3789 31.3842 34.4233 31.0229 34.4677L31.047 34.4233Z" fill="#B48F48"/>
<path d="M27.5303 34.1124C27.3617 34.1124 27.1931 34.068 27.0726 33.9793C27.0244 33.9571 26.9763 33.9127 26.9522 33.8683C26.8799 33.7795 26.8076 33.6463 26.7594 33.4909C26.7354 33.4465 26.7354 33.3799 26.7354 33.3355C26.7354 33.1135 26.8558 32.8693 27.2894 32.7805C27.6749 32.6918 28.0603 32.381 28.3494 32.381C28.4939 32.381 28.5903 32.4476 28.6385 32.6696C28.6385 32.6918 28.6385 32.7362 28.6625 32.7584C28.783 33.3799 28.4939 33.9793 27.9398 34.1124C27.7953 34.1568 27.6508 34.1568 27.5303 34.1568V34.1124ZM27.6989 33.0913C27.6749 33.0913 27.6267 33.0913 27.6026 33.1135C27.4099 33.1579 27.2894 33.2911 27.3135 33.4021C27.3376 33.5131 27.458 33.5575 27.6026 33.5575C27.6267 33.5575 27.6749 33.5575 27.6989 33.5353C27.8917 33.4909 28.0121 33.3577 27.988 33.2467C27.9639 33.1357 27.8435 33.0913 27.6989 33.0913Z" fill="#863940"/>
<path d="M27.6027 33.5573C27.4581 33.5573 27.3377 33.4907 27.3136 33.402C27.2895 33.2688 27.41 33.1356 27.6027 33.1134C27.6509 33.1134 27.6749 33.0912 27.699 33.0912C27.8436 33.0912 27.964 33.1578 27.9881 33.2466C28.0122 33.3798 27.8918 33.5129 27.699 33.5351C27.6509 33.5351 27.6268 33.5573 27.6027 33.5573Z" fill="#B48F48"/>
<path d="M24.4213 28.5851C22.9037 30.5164 18.8084 32.9804 17.8207 30.0502C17.8207 30.0502 16.0622 32.4476 15.0504 30.1168C15.0504 30.1168 12.0392 33.8239 8.78702 32.5808C5.5349 31.3377 7.36572 29.1179 7.36572 29.1179C7.36572 29.1179 4.76402 30.361 4.69175 27.8748C4.61948 25.4108 7.53435 26.2543 7.53435 26.2543C7.53435 26.2543 3.00546 24.0123 10.7865 15.0886C10.7865 15.0886 7.60662 10.7822 20.567 8.54018C20.567 8.54018 32.106 3.98955 34.3704 9.07293C34.3704 9.07293 40.8024 8.296 33.6236 15.5548C26.4208 22.7914 24.4213 28.5851 24.4213 28.5851Z" fill="#8C4E36"/>
<path d="M23.0007 22.7691C16.8337 24.9001 10.7149 25.2775 6.23417 24.0788C6.4028 25.7215 7.51094 26.2764 7.51094 26.2764C7.51094 26.2764 4.57198 25.4329 4.66833 27.8969C4.7406 30.3609 7.34231 29.14 7.34231 29.14C7.34231 29.14 5.51148 31.382 8.76361 32.6029C12.0157 33.846 15.027 30.1389 15.027 30.1389C16.0387 32.4475 17.7973 30.0723 17.7973 30.0723C18.8091 33.0025 22.9043 30.5385 24.3979 28.6072C24.3979 28.6072 25.7469 24.7225 30.1795 19.3506C28.0837 20.6825 25.6506 21.859 22.9766 22.7691H23.0007Z" fill="#693C30"/>
<path d="M36.1299 30.1388C38.8039 28.8291 43.0437 24.9444 38.7316 18.9065C35.2627 14.0673 32.8778 11.6255 26.0122 12.8464C22.8323 13.4013 14.8586 19.972 18.978 26.4317C23.0732 32.8025 34.1064 31.1155 36.1299 30.1388Z" fill="#F8BE84"/>
<path d="M40.346 21.7701L22.1582 24.5671L22.3027 25.566L40.4906 22.7691L40.346 21.7701Z" fill="#EEA26C"/>
<path d="M18.2308 25.8545L40.8271 22.436L39.2854 18.1962L17.5322 22.6136L18.2308 25.8545Z" fill="#CE5461"/>
<path d="M23.2181 21.4371L17.0752 22.5692L18.2074 25.8768L24.5912 24.9001C23.724 24.1453 23.3386 22.3917 23.194 21.4371H23.2181Z" fill="#B44757"/>
<path d="M31.167 16.1985C34.4673 16.4649 36.7799 13.8677 34.1301 11.5813L30.7334 12.3804C30.7334 12.3804 37.069 13.4681 31.167 16.1985Z" fill="#8C4E36"/>
<path d="M21.2188 16.5981C22.905 17.0199 25.4104 14.6891 25.5068 12.6469L22.7364 12.78C22.7364 12.78 24.6154 15.466 21.2188 16.5981Z" fill="#8C4E36"/>
<path d="M31.432 14.0009C29.9866 15.8211 25.9877 14.8222 28.1317 11.781L29.5289 11.3815C29.5289 11.3815 27.5054 14.7334 31.432 14.0009Z" fill="#8C4E36"/>
<path d="M19.4118 25.7438C17.4846 25.5884 16.4005 26.4319 16.7378 27.675C17.075 28.9181 19.9899 28.6739 21.0017 27.8304C22.0135 26.9869 19.4118 25.7438 19.4118 25.7438Z" fill="#F8BE84"/>
<path d="M18.9784 26.3209C17.7498 26.2321 17.0753 26.7649 17.2921 27.5418C17.5089 28.3188 19.3639 28.1856 19.9902 27.6306C20.6165 27.0979 18.9784 26.3209 18.9784 26.3209Z" fill="#EEA26C"/>
<path d="M19.5071 26.5429C18.8085 26.4763 18.399 26.7871 18.5435 27.2532C18.664 27.6972 19.724 27.6084 20.0853 27.3198C20.4467 27.0091 19.5071 26.5651 19.5071 26.5651V26.5429Z" fill="#F8BE84"/>
<path d="M19.4115 25.7436C20.7846 25.5216 20.4955 26.7204 22.3504 26.1654C23.8922 25.6992 23.4104 24.3229 21.3387 24.2564C19.2669 24.212 21.7723 22.5915 20.4955 21.9477C18.4961 20.9266 21.7723 18.8622 20.1583 18.8178C18.5443 18.7734 19.2669 16.3538 17.8697 17.2195C16.4725 18.0853 11.245 21.1708 11.0764 22.7691C10.9078 24.3673 13.7985 26.0544 15.6535 25.4995C17.4843 24.9445 16.2557 26.2764 19.4115 25.7658V25.7436Z" fill="#8C4E36"/>
<path d="M27.1439 24.0344C27.1439 24.0344 25.4335 21.0376 27.9148 20.5493C30.396 20.0609 31.191 22.7691 30.8537 23.1909C30.5165 23.5904 28.3243 23.9678 27.1439 24.0344Z" fill="#9A3A49"/>
<path d="M27.4102 24.0344C27.4102 24.0344 25.8444 21.193 28.1088 20.7269C30.3733 20.2607 31.1201 22.8357 30.8069 23.2131C30.4937 23.5904 28.4702 23.9456 27.3861 24.0122L27.4102 24.0344Z" fill="#FEEDDF"/>
<path d="M37.6711 22.3253C37.6711 22.3253 38.0565 19.1509 35.7198 19.4617C33.3831 19.7725 33.6963 22.4363 34.1299 22.7027C34.5635 22.969 36.6111 22.6139 37.6711 22.3253Z" fill="#9A3A49"/>
<path d="M37.7678 22.3252C37.7678 22.3252 38.1291 19.284 35.9129 19.5948C33.7207 19.8834 34.0098 22.4362 34.4193 22.6803C34.8288 22.9245 36.7801 22.6137 37.7678 22.3252Z" fill="#FEEDDF"/>
<path d="M30.6621 25.4553L34.396 25.0114C34.396 25.0114 33.8661 27.3422 32.6616 27.4088C31.698 27.4754 30.6621 25.4331 30.6621 25.4331V25.4553Z" fill="#564034"/>
<path d="M31.7224 26.4984L30.9756 25.5439L34.1073 25.2332L33.6496 26.3209L31.7224 26.4984Z" fill="#FEE9DC"/>
<path d="M33.6253 23.746C33.6012 23.5018 33.1916 23.3242 32.7098 23.3908C32.228 23.4352 31.8667 23.6794 31.8908 23.9236C31.9149 24.1678 32.3244 24.3453 32.8062 24.2787C33.288 24.2344 33.6494 23.9902 33.6253 23.746Z" fill="#EEA26C"/>
<path d="M33.5278 23.6126C33.5037 23.4128 33.1665 23.2797 32.757 23.3019C32.3474 23.3462 32.0584 23.546 32.0825 23.7458C32.1065 23.9456 32.4438 24.0788 32.8533 24.0566C33.2628 24.0122 33.5519 23.8124 33.5278 23.6126Z" fill="#F8BE84"/>
<path d="M29.7706 22.5916C29.6983 22.0588 29.2647 21.6814 28.7829 21.7258C28.3011 21.7702 27.9639 22.2364 28.0361 22.7692C28.1084 23.3019 28.542 23.6793 29.0238 23.6349C29.5056 23.5905 29.8429 23.1243 29.7706 22.5916Z" fill="#77AAB6"/>
<path d="M36.9252 21.504C36.877 21.0156 36.4675 20.6382 36.0098 20.6826C35.5521 20.727 35.2389 21.1488 35.2871 21.6593C35.3353 22.1477 35.7448 22.5251 36.2025 22.4807C36.6602 22.4363 36.9734 22.0145 36.9252 21.504Z" fill="#77AAB6"/>
<path d="M36.5148 21.3484C36.4907 21.1486 36.3221 21.0154 36.1535 21.0154C35.9607 21.0376 35.8403 21.193 35.8644 21.3928C35.8885 21.5925 36.0571 21.7479 36.2257 21.7257C36.4184 21.7035 36.5389 21.5481 36.5148 21.3484Z" fill="#9CD4DD"/>
<path d="M29.3848 22.3916C29.3608 22.1918 29.1921 22.0364 28.9994 22.0586C28.8067 22.0808 28.6621 22.2584 28.6862 22.4582C28.7103 22.658 28.8789 22.8134 29.0717 22.7912C29.2644 22.769 29.4089 22.5914 29.3848 22.3916Z" fill="#9CD4DD"/>
<path d="M30.8067 25.4551C30.8067 25.3441 30.7103 25.2332 30.5899 25.2332C30.4694 25.2332 30.373 25.3219 30.373 25.4551C30.373 25.5661 30.4694 25.6771 30.5899 25.6771C30.7103 25.6771 30.8067 25.5883 30.8067 25.4551Z" fill="#564034"/>
<path d="M34.6123 25.0554C34.6123 24.9444 34.516 24.8334 34.3955 24.8334C34.2751 24.8334 34.1787 24.9222 34.1787 25.0554C34.1787 25.1664 34.2751 25.2773 34.3955 25.2773C34.516 25.2773 34.6123 25.1885 34.6123 25.0554Z" fill="#564034"/>
<path d="M28.3251 25.4109C28.2769 25.1445 27.6024 25.0335 26.8315 25.1445C26.0607 25.2777 25.4584 25.5885 25.5066 25.8549C25.5548 26.1212 26.2293 26.2322 27.0002 26.1212C27.771 25.9881 28.3733 25.6773 28.3251 25.4109Z" fill="#EEA26C"/>
<path d="M39.5497 23.8567C39.5015 23.5903 38.827 23.4793 38.0562 23.5903C37.2853 23.7235 36.683 24.0343 36.7312 24.3007C36.7794 24.567 37.4539 24.678 38.2248 24.567C38.9957 24.4339 39.5979 24.1231 39.5497 23.8567Z" fill="#EEA26C"/>
<path d="M25.0009 20.6158C24.9528 20.6824 26.7836 19.0841 27.4581 18.8178C27.4581 18.8178 26.3499 18.4404 25.0009 20.6158Z" fill="#8C4E36"/>
<path d="M36.7082 17.841C36.7804 17.8632 34.3233 17.8188 33.6729 18.0408C33.6729 18.0408 34.1546 17.0863 36.7082 17.841Z" fill="#8C4E36"/>
<path d="M15.9181 26.4541C14.0873 26.2987 11.341 23.9901 12.7864 21.3707C12.7864 21.3707 10.1125 23.1244 10.2811 24.9668L15.9181 26.4541Z" fill="#693C30"/>
</g>
</svg>
