<svg width="201" height="228" viewBox="0 0 201 228" fill="none" xmlns="http://www.w3.org/2000/svg">
<path d="M156.842 152.767C150.059 152.767 144.559 147.268 144.559 140.485V68.9622C144.559 44.8567 124.948 25.2447 100.842 25.2447C76.7364 25.2447 57.1243 44.8562 57.1243 68.9622V110.561C57.1243 117.345 51.6252 122.844 44.8417 122.844C38.0582 122.844 32.5591 117.345 32.5591 110.561V68.9622C32.5591 31.3108 63.1904 0.679443 100.842 0.679443C138.493 0.679443 169.125 31.3108 169.125 68.9622V140.485C169.125 147.268 163.626 152.767 156.842 152.767Z" fill="#B1B4B5"/>
<path d="M175.575 227.145H26.1094C12.1548 227.145 0.842285 215.833 0.842285 201.878V115.465C0.842285 101.51 12.1548 90.1975 26.1094 90.1975H175.575C189.53 90.1975 200.842 101.51 200.842 115.465V201.878C200.842 215.833 189.53 227.145 175.575 227.145Z" fill="#FFB636"/>
<path d="M22.7707 206.783H21.5048C17.5177 206.783 14.2856 203.551 14.2856 199.564V117.781C14.2856 113.794 17.5177 110.562 21.5048 110.562H22.7707C26.7578 110.562 29.9898 113.794 29.9898 117.781V199.564C29.9898 203.551 26.7578 206.783 22.7707 206.783Z" fill="#FFD469"/>
</svg>
