<svg width="140" height="227" viewBox="0 0 140 227" fill="none" xmlns="http://www.w3.org/2000/svg">
<path d="M77.7692 2H62.1923L42 63.6201L68.8269 57.7993L58.4423 81.2832L65.6538 149.928L45.4615 193.685H60.4615L51.8077 226L67.0962 189.871H51.8077L71.1346 151.133V79.6774L87 41.7419L62.1923 45.957L77.7692 2Z" fill="#FFFC31" stroke="#292929" stroke-width="3"/>
<path d="M81.5241 79.1325L69.5021 88.5963C69.1417 88.88 68.6344 88.8821 68.2716 88.6015L56.3741 79.3972C55.6846 78.8638 54.6904 79.4064 54.766 80.2749L55.6732 90.6964C55.7349 91.4047 55.0584 91.9493 54.3796 91.7379L28.3951 83.6438C27.5224 83.372 26.7726 84.3167 27.2353 85.1049L37.0345 101.795C37.4475 102.499 36.8899 103.374 36.0777 103.297L9.9158 100.816C9.04983 100.734 8.49915 101.72 9.02339 102.414L21.79 119.317C22.2258 119.894 21.924 120.729 21.22 120.894L3.20624 125.111C2.24371 125.336 2.15691 126.673 3.08219 127.021L24.6702 135.139C25.2965 135.374 25.5193 136.147 25.1147 136.68L12.2663 153.603C11.7032 154.345 12.3704 155.386 13.2795 155.184L33.0375 150.797C33.7511 150.638 34.388 151.274 34.2309 151.988L31.033 166.517C30.8585 167.309 31.651 167.969 32.3986 167.653L50.9377 159.824C51.3358 159.656 51.7969 159.762 52.0807 160.088L61.3757 170.757C61.8047 171.25 62.5828 171.206 62.9533 170.668L70.0381 160.383C70.356 159.921 70.9911 159.811 71.4459 160.139L90.1327 173.593C90.8184 174.087 91.7695 173.56 91.7149 172.717L90.7129 157.25C90.6671 156.544 91.3496 156.015 92.0222 156.236L116.472 164.249C117.351 164.537 118.116 163.58 117.642 162.786L108.88 148.108C108.466 147.415 109.001 146.543 109.806 146.598L131.038 148.036C132.001 148.101 132.489 146.899 131.752 146.275L117.932 134.571C117.33 134.062 117.528 133.088 118.281 132.854L137.519 126.856C138.393 126.584 138.472 125.378 137.641 124.994L115.529 114.783C115.008 114.542 114.796 113.912 115.066 113.405L124.625 95.4862C125.032 94.7232 124.344 93.8382 123.504 94.0443L98.3877 100.209C97.6595 100.388 97.0009 99.7312 97.1774 99.0025L101.162 82.5541C101.371 81.6894 100.432 81.0022 99.6713 81.4637L85.5593 90.0254C84.929 90.4078 84.1157 89.9999 84.0452 89.2661L83.1381 79.8227C83.0624 79.0352 82.1457 78.6432 81.5241 79.1325Z" fill="white" stroke="#292929" stroke-width="3"/>
<g filter="url(#filter0_d)">
<path d="M51.832 143.432C52.248 138.952 52.632 134.552 52.984 130.232C53.144 128.44 53.288 126.552 53.416 124.568C53.576 122.584 53.704 120.632 53.8 118.712C53.928 116.76 54.024 114.888 54.088 113.096C54.152 111.272 54.2 109.608 54.232 108.104C55 108.104 55.816 108.088 56.68 108.056C57.576 108.024 58.376 107.992 59.08 107.96C59.816 107.928 60.44 107.896 60.952 107.864C61.464 107.8 61.72 107.768 61.72 107.768C61.368 111.48 61.064 114.536 60.808 116.936C60.552 119.304 60.344 121.24 60.184 122.744C60.056 124.216 59.928 125.64 59.8 127.016C59.704 128.392 59.592 129.672 59.464 130.856C59.336 132.04 59.224 133.048 59.128 133.88H59.992L65.368 108.344C66.232 108.312 67.112 108.264 68.008 108.2C68.808 108.136 69.64 108.088 70.504 108.056C71.4 108.024 72.216 107.96 72.952 107.864C72.504 109.272 72.04 110.824 71.56 112.52C71.112 114.216 70.632 115.976 70.12 117.8C69.64 119.624 69.16 121.48 68.68 123.368C68.232 125.256 67.784 127.08 67.336 128.84C66.312 132.968 65.288 137.208 64.264 141.56L51.832 143.432ZM88.4515 131.144C88.4515 132.936 88.0995 134.568 87.3955 136.04C86.7235 137.48 85.7955 138.728 84.6115 139.784C83.4595 140.84 82.0835 141.656 80.4835 142.232C78.9155 142.808 77.2195 143.096 75.3955 143.096C74.1155 143.096 72.8355 142.76 71.5555 142.088C70.2755 141.384 69.0435 140.28 67.8595 138.776L71.4115 131.816C71.6355 132.232 71.9715 132.664 72.4195 133.112C72.8675 133.528 73.3635 133.896 73.9075 134.216C74.4835 134.536 75.0435 134.808 75.5875 135.032C76.1635 135.224 76.6755 135.32 77.1235 135.32C77.5075 135.32 77.9075 135.256 78.3235 135.128C78.7395 135 79.1235 134.808 79.4755 134.552C79.8275 134.296 80.0995 134.008 80.2915 133.688C80.5155 133.336 80.6275 132.936 80.6275 132.488C80.6275 131.72 80.3715 131.016 79.8595 130.376C79.3795 129.704 78.7715 129.08 78.0355 128.504C77.2995 127.896 76.4995 127.288 75.6355 126.68C74.7715 126.072 73.9715 125.432 73.2355 124.76C72.5315 124.088 71.9235 123.336 71.4115 122.504C70.8995 121.672 70.6435 120.744 70.6435 119.72C70.6435 118.056 71.1395 116.504 72.1315 115.064C73.1235 113.624 74.3555 112.392 75.8275 111.368C77.3315 110.312 78.9635 109.48 80.7235 108.872C82.4835 108.264 84.1475 107.96 85.7155 107.96C86.5795 107.96 87.3955 108.072 88.1635 108.296C88.9315 108.488 89.5875 108.824 90.1315 109.304C90.7075 109.752 91.1555 110.328 91.4755 111.032C91.8275 111.736 92.0035 112.616 92.0035 113.672C92.0035 114.12 91.9555 114.568 91.8595 115.016C91.7955 115.464 91.7315 115.944 91.6675 116.456L84.7075 118.472C84.7715 118.216 84.8195 117.96 84.8515 117.704C84.9155 117.448 84.9475 117.192 84.9475 116.936C84.9475 115.976 84.7715 115.288 84.4195 114.872C84.0995 114.424 83.6675 114.2 83.1235 114.2C82.8675 114.2 82.5475 114.296 82.1635 114.488C81.8115 114.68 81.4435 114.936 81.0595 115.256C80.7075 115.544 80.4035 115.896 80.1475 116.312C79.8915 116.728 79.7635 117.176 79.7635 117.656C79.7635 118.424 79.9715 119.064 80.3875 119.576C80.8355 120.088 81.3795 120.568 82.0195 121.016C82.6595 121.464 83.3475 121.928 84.0835 122.408C84.8515 122.856 85.5555 123.448 86.1955 124.184C86.8355 124.92 87.3635 125.848 87.7795 126.968C88.2275 128.056 88.4515 129.448 88.4515 131.144Z" fill="#587291"/>
<path d="M51.832 143.432L50.8363 143.34L50.7182 144.611L51.9809 144.421L51.832 143.432ZM52.984 130.232L51.9879 130.143L51.9873 130.151L52.984 130.232ZM53.416 124.568L52.4192 124.488L52.4186 124.496L52.4181 124.504L53.416 124.568ZM53.8 118.712L52.8021 118.647L52.8016 118.654L52.8012 118.662L53.8 118.712ZM54.088 113.096L55.0874 113.132L55.0874 113.131L54.088 113.096ZM54.232 108.104V107.104H53.2531L53.2322 108.083L54.232 108.104ZM56.68 108.056L56.6443 107.057L56.643 107.057L56.68 108.056ZM59.08 107.96L59.0366 106.961L59.0346 106.961L59.08 107.96ZM60.952 107.864L61.0144 108.862L61.0453 108.86L61.076 108.856L60.952 107.864ZM61.72 107.768L62.7155 107.862L62.8332 106.621L61.596 106.776L61.72 107.768ZM60.808 116.936L61.8022 117.043L61.8024 117.042L60.808 116.936ZM60.184 122.744L59.1896 122.638L59.1886 122.648L59.1878 122.657L60.184 122.744ZM59.8 127.016L58.8043 126.923L58.8032 126.935L58.8024 126.946L59.8 127.016ZM59.464 130.856L58.4698 130.749V130.749L59.464 130.856ZM59.128 133.88L58.1346 133.765L58.006 134.88H59.128V133.88ZM59.992 133.88V134.88H60.8034L60.9706 134.086L59.992 133.88ZM65.368 108.344L65.331 107.345L64.5504 107.374L64.3895 108.138L65.368 108.344ZM68.008 108.2L68.0793 109.197L68.0877 109.197L68.008 108.2ZM70.504 108.056L70.4683 107.057L70.467 107.057L70.504 108.056ZM72.952 107.864L73.9049 108.167L74.3816 106.669L72.8227 106.872L72.952 107.864ZM71.56 112.52L70.5978 112.248L70.5954 112.256L70.5932 112.265L71.56 112.52ZM70.12 117.8L69.1572 117.53L69.155 117.538L69.1529 117.546L70.12 117.8ZM68.68 123.368L67.7108 123.122L67.7089 123.129L67.707 123.137L68.68 123.368ZM67.336 128.84L66.3669 128.593L66.3654 128.599L67.336 128.84ZM64.264 141.56L64.4129 142.549L65.0824 142.448L65.2374 141.789L64.264 141.56ZM52.8277 143.524C53.2441 139.041 53.6284 134.637 53.9807 130.313L51.9873 130.151C51.6356 134.467 51.2519 138.863 50.8363 143.34L52.8277 143.524ZM53.98 130.321C54.1408 128.52 54.2855 126.624 54.4139 124.632L52.4181 124.504C52.2905 126.48 52.1472 128.36 51.988 130.143L53.98 130.321ZM54.4128 124.648C54.5736 122.655 54.7022 120.692 54.7988 118.762L52.8012 118.662C52.7058 120.572 52.5784 122.513 52.4192 124.488L54.4128 124.648ZM54.7979 118.777C54.9264 116.816 55.023 114.934 55.0874 113.132L53.0886 113.06C53.025 114.842 52.9296 116.704 52.8021 118.647L54.7979 118.777ZM55.0874 113.131C55.1515 111.303 55.1997 109.635 55.2318 108.125L53.2322 108.083C53.2003 109.581 53.1525 111.241 53.0886 113.061L55.0874 113.131ZM54.232 109.104C55.0138 109.104 55.8422 109.088 56.717 109.055L56.643 107.057C55.7898 107.088 54.9862 107.104 54.232 107.104V109.104ZM56.7157 109.055C57.6141 109.023 58.4174 108.991 59.1254 108.959L59.0346 106.961C58.3346 106.993 57.5379 107.025 56.6443 107.057L56.7157 109.055ZM59.1234 108.959C59.8633 108.927 60.494 108.895 61.0144 108.862L60.8896 106.866C60.386 106.897 59.7687 106.929 59.0366 106.961L59.1234 108.959ZM61.076 108.856C61.077 108.856 61.078 108.856 61.079 108.856C61.08 108.856 61.081 108.856 61.082 108.856C61.083 108.855 61.084 108.855 61.085 108.855C61.086 108.855 61.087 108.855 61.088 108.855C61.089 108.855 61.09 108.855 61.091 108.854C61.092 108.854 61.0929 108.854 61.0939 108.854C61.0949 108.854 61.0959 108.854 61.0969 108.854C61.0979 108.854 61.0989 108.853 61.0998 108.853C61.1008 108.853 61.1018 108.853 61.1028 108.853C61.1038 108.853 61.1048 108.853 61.1057 108.853C61.1067 108.852 61.1077 108.852 61.1087 108.852C61.1097 108.852 61.1106 108.852 61.1116 108.852C61.1126 108.852 61.1136 108.852 61.1145 108.851C61.1155 108.851 61.1165 108.851 61.1175 108.851C61.1184 108.851 61.1194 108.851 61.1204 108.851C61.1213 108.851 61.1223 108.85 61.1233 108.85C61.1243 108.85 61.1252 108.85 61.1262 108.85C61.1272 108.85 61.1281 108.85 61.1291 108.85C61.13 108.85 61.131 108.849 61.132 108.849C61.1329 108.849 61.1339 108.849 61.1349 108.849C61.1358 108.849 61.1368 108.849 61.1377 108.849C61.1387 108.848 61.1397 108.848 61.1406 108.848C61.1416 108.848 61.1425 108.848 61.1435 108.848C61.1444 108.848 61.1454 108.848 61.1463 108.847C61.1473 108.847 61.1483 108.847 61.1492 108.847C61.1502 108.847 61.1511 108.847 61.1521 108.847C61.153 108.847 61.154 108.847 61.1549 108.846C61.1558 108.846 61.1568 108.846 61.1577 108.846C61.1587 108.846 61.1596 108.846 61.1606 108.846C61.1615 108.846 61.1625 108.845 61.1634 108.845C61.1643 108.845 61.1653 108.845 61.1662 108.845C61.1672 108.845 61.1681 108.845 61.169 108.845C61.17 108.845 61.1709 108.844 61.1718 108.844C61.1728 108.844 61.1737 108.844 61.1746 108.844C61.1756 108.844 61.1765 108.844 61.1774 108.844C61.1784 108.843 61.1793 108.843 61.1802 108.843C61.1812 108.843 61.1821 108.843 61.183 108.843C61.184 108.843 61.1849 108.843 61.1858 108.843C61.1867 108.842 61.1877 108.842 61.1886 108.842C61.1895 108.842 61.1904 108.842 61.1913 108.842C61.1923 108.842 61.1932 108.842 61.1941 108.842C61.195 108.841 61.1959 108.841 61.1969 108.841C61.1978 108.841 61.1987 108.841 61.1996 108.841C61.2005 108.841 61.2014 108.841 61.2024 108.84C61.2033 108.84 61.2042 108.84 61.2051 108.84C61.206 108.84 61.2069 108.84 61.2078 108.84C61.2087 108.84 61.2097 108.84 61.2106 108.839C61.2115 108.839 61.2124 108.839 61.2133 108.839C61.2142 108.839 61.2151 108.839 61.216 108.839C61.2169 108.839 61.2178 108.839 61.2187 108.838C61.2196 108.838 61.2205 108.838 61.2214 108.838C61.2223 108.838 61.2232 108.838 61.2241 108.838C61.225 108.838 61.2259 108.838 61.2268 108.837C61.2277 108.837 61.2286 108.837 61.2295 108.837C61.2304 108.837 61.2313 108.837 61.2322 108.837C61.2331 108.837 61.234 108.837 61.2348 108.836C61.2357 108.836 61.2366 108.836 61.2375 108.836C61.2384 108.836 61.2393 108.836 61.2402 108.836C61.2411 108.836 61.242 108.836 61.2428 108.835C61.2437 108.835 61.2446 108.835 61.2455 108.835C61.2464 108.835 61.2473 108.835 61.2481 108.835C61.249 108.835 61.2499 108.835 61.2508 108.834C61.2517 108.834 61.2525 108.834 61.2534 108.834C61.2543 108.834 61.2552 108.834 61.256 108.834C61.2569 108.834 61.2578 108.834 61.2587 108.833C61.2595 108.833 61.2604 108.833 61.2613 108.833C61.2621 108.833 61.263 108.833 61.2639 108.833C61.2648 108.833 61.2656 108.833 61.2665 108.832C61.2674 108.832 61.2682 108.832 61.2691 108.832C61.27 108.832 61.2708 108.832 61.2717 108.832C61.2725 108.832 61.2734 108.832 61.2743 108.831C61.2751 108.831 61.276 108.831 61.2768 108.831C61.2777 108.831 61.2786 108.831 61.2794 108.831C61.2803 108.831 61.2811 108.831 61.282 108.831C61.2828 108.83 61.2837 108.83 61.2846 108.83C61.2854 108.83 61.2863 108.83 61.2871 108.83C61.288 108.83 61.2888 108.83 61.2897 108.83C61.2905 108.829 61.2914 108.829 61.2922 108.829C61.2931 108.829 61.2939 108.829 61.2947 108.829C61.2956 108.829 61.2964 108.829 61.2973 108.829C61.2981 108.829 61.299 108.828 61.2998 108.828C61.3007 108.828 61.3015 108.828 61.3023 108.828C61.3032 108.828 61.304 108.828 61.3049 108.828C61.3057 108.828 61.3065 108.827 61.3074 108.827C61.3082 108.827 61.309 108.827 61.3099 108.827C61.3107 108.827 61.3115 108.827 61.3124 108.827C61.3132 108.827 61.314 108.827 61.3149 108.826C61.3157 108.826 61.3165 108.826 61.3173 108.826C61.3182 108.826 61.319 108.826 61.3198 108.826C61.3207 108.826 61.3215 108.826 61.3223 108.825C61.3231 108.825 61.324 108.825 61.3248 108.825C61.3256 108.825 61.3264 108.825 61.3272 108.825C61.3281 108.825 61.3289 108.825 61.3297 108.825C61.3305 108.824 61.3313 108.824 61.3321 108.824C61.333 108.824 61.3338 108.824 61.3346 108.824C61.3354 108.824 61.3362 108.824 61.337 108.824C61.3378 108.824 61.3387 108.823 61.3395 108.823C61.3403 108.823 61.3411 108.823 61.3419 108.823C61.3427 108.823 61.3435 108.823 61.3443 108.823C61.3451 108.823 61.3459 108.823 61.3467 108.822C61.3475 108.822 61.3483 108.822 61.3491 108.822C61.35 108.822 61.3508 108.822 61.3516 108.822C61.3524 108.822 61.3532 108.822 61.354 108.822C61.3548 108.821 61.3555 108.821 61.3563 108.821C61.3571 108.821 61.3579 108.821 61.3587 108.821C61.3595 108.821 61.3603 108.821 61.3611 108.821C61.3619 108.821 61.3627 108.82 61.3635 108.82C61.3643 108.82 61.3651 108.82 61.3659 108.82C61.3667 108.82 61.3674 108.82 61.3682 108.82C61.369 108.82 61.3698 108.82 61.3706 108.819C61.3714 108.819 61.3722 108.819 61.3729 108.819C61.3737 108.819 61.3745 108.819 61.3753 108.819C61.3761 108.819 61.3768 108.819 61.3776 108.819C61.3784 108.818 61.3792 108.818 61.38 108.818C61.3807 108.818 61.3815 108.818 61.3823 108.818C61.3831 108.818 61.3838 108.818 61.3846 108.818C61.3854 108.818 61.3862 108.818 61.3869 108.817C61.3877 108.817 61.3885 108.817 61.3892 108.817C61.39 108.817 61.3908 108.817 61.3915 108.817C61.3923 108.817 61.3931 108.817 61.3938 108.817C61.3946 108.816 61.3954 108.816 61.3961 108.816C61.3969 108.816 61.3977 108.816 61.3984 108.816C61.3992 108.816 61.4 108.816 61.4007 108.816C61.4015 108.816 61.4022 108.816 61.403 108.815C61.4037 108.815 61.4045 108.815 61.4053 108.815C61.406 108.815 61.4068 108.815 61.4075 108.815C61.4083 108.815 61.409 108.815 61.4098 108.815C61.4105 108.814 61.4113 108.814 61.412 108.814C61.4128 108.814 61.4135 108.814 61.4143 108.814C61.415 108.814 61.4158 108.814 61.4165 108.814C61.4173 108.814 61.418 108.814 61.4188 108.813C61.4195 108.813 61.4202 108.813 61.421 108.813C61.4217 108.813 61.4225 108.813 61.4232 108.813C61.424 108.813 61.4247 108.813 61.4254 108.813C61.4262 108.813 61.4269 108.812 61.4276 108.812C61.4284 108.812 61.4291 108.812 61.4298 108.812C61.4306 108.812 61.4313 108.812 61.432 108.812C61.4328 108.812 61.4335 108.812 61.4342 108.812C61.435 108.811 61.4357 108.811 61.4364 108.811C61.4372 108.811 61.4379 108.811 61.4386 108.811C61.4393 108.811 61.4401 108.811 61.4408 108.811C61.4415 108.811 61.4422 108.811 61.443 108.81C61.4437 108.81 61.4444 108.81 61.4451 108.81C61.4458 108.81 61.4466 108.81 61.4473 108.81C61.448 108.81 61.4487 108.81 61.4494 108.81C61.4502 108.81 61.4509 108.809 61.4516 108.809C61.4523 108.809 61.453 108.809 61.4537 108.809C61.4544 108.809 61.4552 108.809 61.4559 108.809C61.4566 108.809 61.4573 108.809 61.458 108.809C61.4587 108.808 61.4594 108.808 61.4601 108.808C61.4608 108.808 61.4615 108.808 61.4622 108.808C61.4629 108.808 61.4636 108.808 61.4643 108.808C61.465 108.808 61.4658 108.808 61.4665 108.807C61.4672 108.807 61.4679 108.807 61.4686 108.807C61.4693 108.807 61.47 108.807 61.4706 108.807C61.4713 108.807 61.472 108.807 61.4727 108.807C61.4734 108.807 61.4741 108.807 61.4748 108.806C61.4755 108.806 61.4762 108.806 61.4769 108.806C61.4776 108.806 61.4783 108.806 61.479 108.806C61.4797 108.806 61.4803 108.806 61.481 108.806C61.4817 108.806 61.4824 108.805 61.4831 108.805C61.4838 108.805 61.4845 108.805 61.4851 108.805C61.4858 108.805 61.4865 108.805 61.4872 108.805C61.4879 108.805 61.4886 108.805 61.4892 108.805C61.4899 108.805 61.4906 108.804 61.4913 108.804C61.492 108.804 61.4926 108.804 61.4933 108.804C61.494 108.804 61.4947 108.804 61.4953 108.804C61.496 108.804 61.4967 108.804 61.4973 108.804C61.498 108.804 61.4987 108.803 61.4994 108.803C61.5 108.803 61.5007 108.803 61.5014 108.803C61.502 108.803 61.5027 108.803 61.5034 108.803C61.504 108.803 61.5047 108.803 61.5054 108.803C61.506 108.803 61.5067 108.802 61.5074 108.802C61.508 108.802 61.5087 108.802 61.5093 108.802C61.51 108.802 61.5107 108.802 61.5113 108.802C61.512 108.802 61.5126 108.802 61.5133 108.802C61.5139 108.802 61.5146 108.801 61.5152 108.801C61.5159 108.801 61.5166 108.801 61.5172 108.801C61.5179 108.801 61.5185 108.801 61.5192 108.801C61.5198 108.801 61.5205 108.801 61.5211 108.801C61.5218 108.801 61.5224 108.8 61.5231 108.8C61.5237 108.8 61.5243 108.8 61.525 108.8C61.5256 108.8 61.5263 108.8 61.5269 108.8C61.5276 108.8 61.5282 108.8 61.5288 108.8C61.5295 108.8 61.5301 108.8 61.5308 108.799C61.5314 108.799 61.532 108.799 61.5327 108.799C61.5333 108.799 61.534 108.799 61.5346 108.799C61.5352 108.799 61.5359 108.799 61.5365 108.799C61.5371 108.799 61.5378 108.799 61.5384 108.798C61.539 108.798 61.5396 108.798 61.5403 108.798C61.5409 108.798 61.5415 108.798 61.5422 108.798C61.5428 108.798 61.5434 108.798 61.544 108.798C61.5447 108.798 61.5453 108.798 61.5459 108.798C61.5465 108.797 61.5472 108.797 61.5478 108.797C61.5484 108.797 61.549 108.797 61.5496 108.797C61.5503 108.797 61.5509 108.797 61.5515 108.797C61.5521 108.797 61.5527 108.797 61.5533 108.797C61.554 108.797 61.5546 108.796 61.5552 108.796C61.5558 108.796 61.5564 108.796 61.557 108.796C61.5576 108.796 61.5582 108.796 61.5588 108.796C61.5595 108.796 61.5601 108.796 61.5607 108.796C61.5613 108.796 61.5619 108.796 61.5625 108.795C61.5631 108.795 61.5637 108.795 61.5643 108.795C61.5649 108.795 61.5655 108.795 61.5661 108.795C61.5667 108.795 61.5673 108.795 61.5679 108.795C61.5685 108.795 61.5691 108.795 61.5697 108.795C61.5703 108.794 61.5709 108.794 61.5715 108.794C61.5721 108.794 61.5727 108.794 61.5733 108.794C61.5739 108.794 61.5745 108.794 61.5751 108.794C61.5757 108.794 61.5762 108.794 61.5768 108.794C61.5774 108.794 61.578 108.794 61.5786 108.793C61.5792 108.793 61.5798 108.793 61.5804 108.793C61.5809 108.793 61.5815 108.793 61.5821 108.793C61.5827 108.793 61.5833 108.793 61.5839 108.793C61.5844 108.793 61.585 108.793 61.5856 108.793C61.5862 108.793 61.5868 108.792 61.5873 108.792C61.5879 108.792 61.5885 108.792 61.5891 108.792C61.5897 108.792 61.5902 108.792 61.5908 108.792C61.5914 108.792 61.592 108.792 61.5925 108.792C61.5931 108.792 61.5937 108.792 61.5942 108.792C61.5948 108.791 61.5954 108.791 61.5959 108.791C61.5965 108.791 61.5971 108.791 61.5976 108.791C61.5982 108.791 61.5988 108.791 61.5993 108.791C61.5999 108.791 61.6005 108.791 61.601 108.791C61.6016 108.791 61.6022 108.791 61.6027 108.79C61.6033 108.79 61.6038 108.79 61.6044 108.79C61.605 108.79 61.6055 108.79 61.6061 108.79C61.6066 108.79 61.6072 108.79 61.6077 108.79C61.6083 108.79 61.6088 108.79 61.6094 108.79C61.61 108.79 61.6105 108.789 61.6111 108.789C61.6116 108.789 61.6122 108.789 61.6127 108.789C61.6133 108.789 61.6138 108.789 61.6143 108.789C61.6149 108.789 61.6154 108.789 61.616 108.789C61.6165 108.789 61.6171 108.789 61.6176 108.789C61.6182 108.789 61.6187 108.788 61.6192 108.788C61.6198 108.788 61.6203 108.788 61.6209 108.788C61.6214 108.788 61.6219 108.788 61.6225 108.788C61.623 108.788 61.6235 108.788 61.6241 108.788C61.6246 108.788 61.6252 108.788 61.6257 108.788C61.6262 108.788 61.6268 108.787 61.6273 108.787C61.6278 108.787 61.6283 108.787 61.6289 108.787C61.6294 108.787 61.6299 108.787 61.6305 108.787C61.631 108.787 61.6315 108.787 61.632 108.787C61.6326 108.787 61.6331 108.787 61.6336 108.787C61.6341 108.787 61.6347 108.786 61.6352 108.786C61.6357 108.786 61.6362 108.786 61.6367 108.786C61.6373 108.786 61.6378 108.786 61.6383 108.786C61.6388 108.786 61.6393 108.786 61.6398 108.786C61.6404 108.786 61.6409 108.786 61.6414 108.786C61.6419 108.786 61.6424 108.785 61.6429 108.785C61.6434 108.785 61.644 108.785 61.6445 108.785C61.645 108.785 61.6455 108.785 61.646 108.785C61.6465 108.785 61.647 108.785 61.6475 108.785C61.648 108.785 61.6485 108.785 61.649 108.785C61.6495 108.785 61.65 108.785 61.6505 108.784C61.651 108.784 61.6515 108.784 61.652 108.784C61.6525 108.784 61.653 108.784 61.6535 108.784C61.654 108.784 61.6545 108.784 61.655 108.784C61.6555 108.784 61.656 108.784 61.6565 108.784C61.657 108.784 61.6575 108.784 61.658 108.784C61.6585 108.783 61.659 108.783 61.6595 108.783C61.66 108.783 61.6604 108.783 61.6609 108.783C61.6614 108.783 61.6619 108.783 61.6624 108.783C61.6629 108.783 61.6634 108.783 61.6638 108.783C61.6643 108.783 61.6648 108.783 61.6653 108.783C61.6658 108.783 61.6663 108.782 61.6667 108.782C61.6672 108.782 61.6677 108.782 61.6682 108.782C61.6687 108.782 61.6691 108.782 61.6696 108.782C61.6701 108.782 61.6706 108.782 61.671 108.782C61.6715 108.782 61.672 108.782 61.6725 108.782C61.6729 108.782 61.6734 108.782 61.6739 108.782C61.6743 108.781 61.6748 108.781 61.6753 108.781C61.6758 108.781 61.6762 108.781 61.6767 108.781C61.6772 108.781 61.6776 108.781 61.6781 108.781C61.6785 108.781 61.679 108.781 61.6795 108.781C61.6799 108.781 61.6804 108.781 61.6809 108.781C61.6813 108.781 61.6818 108.781 61.6822 108.781C61.6827 108.78 61.6832 108.78 61.6836 108.78C61.6841 108.78 61.6845 108.78 61.685 108.78C61.6854 108.78 61.6859 108.78 61.6863 108.78C61.6868 108.78 61.6873 108.78 61.6877 108.78C61.6882 108.78 61.6886 108.78 61.6891 108.78C61.6895 108.78 61.69 108.78 61.6904 108.779C61.6908 108.779 61.6913 108.779 61.6917 108.779C61.6922 108.779 61.6926 108.779 61.6931 108.779C61.6935 108.779 61.694 108.779 61.6944 108.779C61.6948 108.779 61.6953 108.779 61.6957 108.779C61.6962 108.779 61.6966 108.779 61.697 108.779C61.6975 108.779 61.6979 108.779 61.6983 108.778C61.6988 108.778 61.6992 108.778 61.6996 108.778C61.7001 108.778 61.7005 108.778 61.7009 108.778C61.7014 108.778 61.7018 108.778 61.7022 108.778C61.7027 108.778 61.7031 108.778 61.7035 108.778C61.704 108.778 61.7044 108.778 61.7048 108.778C61.7052 108.778 61.7057 108.778 61.7061 108.778C61.7065 108.777 61.7069 108.777 61.7073 108.777C61.7078 108.777 61.7082 108.777 61.7086 108.777C61.709 108.777 61.7094 108.777 61.7099 108.777C61.7103 108.777 61.7107 108.777 61.7111 108.777C61.7115 108.777 61.7119 108.777 61.7124 108.777C61.7128 108.777 61.7132 108.777 61.7136 108.777C61.714 108.777 61.7144 108.776 61.7148 108.776C61.7152 108.776 61.7157 108.776 61.7161 108.776C61.7165 108.776 61.7169 108.776 61.7173 108.776C61.7177 108.776 61.7181 108.776 61.7185 108.776C61.7189 108.776 61.7193 108.776 61.7197 108.776C61.7201 108.776 61.7205 108.776 61.7209 108.776C61.7213 108.776 61.7217 108.776 61.7221 108.776C61.7225 108.775 61.7229 108.775 61.7233 108.775C61.7237 108.775 61.7241 108.775 61.7245 108.775C61.7249 108.775 61.7253 108.775 61.7257 108.775C61.7261 108.775 61.7265 108.775 61.7268 108.775C61.7272 108.775 61.7276 108.775 61.728 108.775C61.7284 108.775 61.7288 108.775 61.7292 108.775C61.7296 108.775 61.73 108.775 61.7303 108.774C61.7307 108.774 61.7311 108.774 61.7315 108.774C61.7319 108.774 61.7323 108.774 61.7326 108.774C61.733 108.774 61.7334 108.774 61.7338 108.774C61.7342 108.774 61.7345 108.774 61.7349 108.774C61.7353 108.774 61.7357 108.774 61.736 108.774C61.7364 108.774 61.7368 108.774 61.7372 108.774C61.7375 108.774 61.7379 108.774 61.7383 108.773C61.7386 108.773 61.739 108.773 61.7394 108.773C61.7398 108.773 61.7401 108.773 61.7405 108.773C61.7409 108.773 61.7412 108.773 61.7416 108.773C61.742 108.773 61.7423 108.773 61.7427 108.773C61.743 108.773 61.7434 108.773 61.7438 108.773C61.7441 108.773 61.7445 108.773 61.7448 108.773C61.7452 108.773 61.7456 108.773 61.7459 108.773C61.7463 108.772 61.7466 108.772 61.747 108.772C61.7473 108.772 61.7477 108.772 61.7481 108.772C61.7484 108.772 61.7488 108.772 61.7491 108.772C61.7495 108.772 61.7498 108.772 61.7502 108.772C61.7505 108.772 61.7509 108.772 61.7512 108.772C61.7516 108.772 61.7519 108.772 61.7522 108.772C61.7526 108.772 61.7529 108.772 61.7533 108.772C61.7536 108.772 61.754 108.772 61.7543 108.771C61.7547 108.771 61.755 108.771 61.7553 108.771C61.7557 108.771 61.756 108.771 61.7564 108.771C61.7567 108.771 61.757 108.771 61.7574 108.771C61.7577 108.771 61.758 108.771 61.7584 108.771C61.7587 108.771 61.759 108.771 61.7594 108.771C61.7597 108.771 61.76 108.771 61.7604 108.771C61.7607 108.771 61.761 108.771 61.7613 108.771C61.7617 108.771 61.762 108.771 61.7623 108.77C61.7627 108.77 61.763 108.77 61.7633 108.77C61.7636 108.77 61.764 108.77 61.7643 108.77C61.7646 108.77 61.7649 108.77 61.7652 108.77C61.7656 108.77 61.7659 108.77 61.7662 108.77C61.7665 108.77 61.7668 108.77 61.7671 108.77C61.7675 108.77 61.7678 108.77 61.7681 108.77C61.7684 108.77 61.7687 108.77 61.769 108.77C61.7693 108.77 61.7697 108.77 61.77 108.77C61.7703 108.769 61.7706 108.769 61.7709 108.769C61.7712 108.769 61.7715 108.769 61.7718 108.769C61.7721 108.769 61.7724 108.769 61.7727 108.769C61.773 108.769 61.7733 108.769 61.7736 108.769C61.774 108.769 61.7743 108.769 61.7746 108.769C61.7749 108.769 61.7752 108.769 61.7755 108.769C61.7758 108.769 61.776 108.769 61.7763 108.769C61.7766 108.769 61.7769 108.769 61.7772 108.769C61.7775 108.769 61.7778 108.769 61.7781 108.769C61.7784 108.768 61.7787 108.768 61.779 108.768C61.7793 108.768 61.7796 108.768 61.7799 108.768C61.7802 108.768 61.7804 108.768 61.7807 108.768C61.781 108.768 61.7813 108.768 61.7816 108.768C61.7819 108.768 61.7822 108.768 61.7824 108.768C61.7827 108.768 61.783 108.768 61.7833 108.768C61.7836 108.768 61.7838 108.768 61.7841 108.768C61.7844 108.768 61.7847 108.768 61.785 108.768C61.7852 108.768 61.7855 108.768 61.7858 108.768C61.7861 108.768 61.7863 108.767 61.7866 108.767C61.7869 108.767 61.7872 108.767 61.7874 108.767C61.7877 108.767 61.788 108.767 61.7882 108.767C61.7885 108.767 61.7888 108.767 61.789 108.767C61.7893 108.767 61.7896 108.767 61.7898 108.767C61.7901 108.767 61.7904 108.767 61.7906 108.767C61.7909 108.767 61.7912 108.767 61.7914 108.767C61.7917 108.767 61.792 108.767 61.7922 108.767C61.7925 108.767 61.7927 108.767 61.793 108.767C61.7932 108.767 61.7935 108.767 61.7938 108.767C61.794 108.767 61.7943 108.766 61.7945 108.766C61.7948 108.766 61.795 108.766 61.7953 108.766C61.7955 108.766 61.7958 108.766 61.796 108.766C61.7963 108.766 61.7965 108.766 61.7968 108.766C61.797 108.766 61.7973 108.766 61.7975 108.766C61.7978 108.766 61.798 108.766 61.7983 108.766C61.7985 108.766 61.7987 108.766 61.799 108.766C61.7992 108.766 61.7995 108.766 61.7997 108.766C61.8 108.766 61.8002 108.766 61.8004 108.766C61.8007 108.766 61.8009 108.766 61.8011 108.766C61.8014 108.766 61.8016 108.766 61.8018 108.766C61.8021 108.766 61.8023 108.765 61.8025 108.765C61.8028 108.765 61.803 108.765 61.8032 108.765C61.8035 108.765 61.8037 108.765 61.8039 108.765C61.8042 108.765 61.8044 108.765 61.8046 108.765C61.8048 108.765 61.8051 108.765 61.8053 108.765C61.8055 108.765 61.8057 108.765 61.806 108.765C61.8062 108.765 61.8064 108.765 61.8066 108.765C61.8068 108.765 61.8071 108.765 61.8073 108.765C61.8075 108.765 61.8077 108.765 61.8079 108.765C61.8082 108.765 61.8084 108.765 61.8086 108.765C61.8088 108.765 61.809 108.765 61.8092 108.765C61.8094 108.765 61.8097 108.765 61.8099 108.765C61.8101 108.765 61.8103 108.764 61.8105 108.764C61.8107 108.764 61.8109 108.764 61.8111 108.764C61.8113 108.764 61.8115 108.764 61.8117 108.764C61.8119 108.764 61.8121 108.764 61.8123 108.764C61.8125 108.764 61.8128 108.764 61.813 108.764C61.8132 108.764 61.8134 108.764 61.8136 108.764C61.8138 108.764 61.814 108.764 61.8141 108.764C61.8143 108.764 61.8145 108.764 61.8147 108.764C61.8149 108.764 61.8151 108.764 61.8153 108.764C61.8155 108.764 61.8157 108.764 61.8159 108.764C61.8161 108.764 61.8163 108.764 61.8165 108.764C61.8167 108.764 61.8168 108.764 61.817 108.764C61.8172 108.764 61.8174 108.764 61.8176 108.764C61.8178 108.764 61.818 108.764 61.8181 108.764C61.8183 108.763 61.8185 108.763 61.8187 108.763C61.8189 108.763 61.8191 108.763 61.8192 108.763C61.8194 108.763 61.8196 108.763 61.8198 108.763C61.82 108.763 61.8201 108.763 61.8203 108.763C61.8205 108.763 61.8207 108.763 61.8208 108.763C61.821 108.763 61.8212 108.763 61.8213 108.763C61.8215 108.763 61.8217 108.763 61.8219 108.763C61.822 108.763 61.8222 108.763 61.8224 108.763C61.8225 108.763 61.8227 108.763 61.8229 108.763C61.823 108.763 61.8232 108.763 61.8234 108.763C61.8235 108.763 61.8237 108.763 61.8239 108.763C61.824 108.763 61.8242 108.763 61.8243 108.763C61.8245 108.763 61.8247 108.763 61.8248 108.763C61.825 108.763 61.8251 108.763 61.8253 108.763C61.8254 108.763 61.8256 108.763 61.8257 108.763C61.8259 108.763 61.8261 108.763 61.8262 108.763C61.8264 108.762 61.8265 108.762 61.8267 108.762C61.8268 108.762 61.827 108.762 61.8271 108.762C61.8273 108.762 61.8274 108.762 61.8276 108.762C61.8277 108.762 61.8278 108.762 61.828 108.762C61.8281 108.762 61.8283 108.762 61.8284 108.762C61.8286 108.762 61.8287 108.762 61.8288 108.762C61.829 108.762 61.8291 108.762 61.8293 108.762C61.8294 108.762 61.8295 108.762 61.8297 108.762C61.8298 108.762 61.83 108.762 61.8301 108.762C61.8302 108.762 61.8304 108.762 61.8305 108.762C61.8306 108.762 61.8308 108.762 61.8309 108.762C61.831 108.762 61.8311 108.762 61.8313 108.762C61.8314 108.762 61.8315 108.762 61.8317 108.762C61.8318 108.762 61.8319 108.762 61.832 108.762C61.8322 108.762 61.8323 108.762 61.8324 108.762C61.8325 108.762 61.8327 108.762 61.8328 108.762C61.8329 108.762 61.833 108.762 61.8331 108.762C61.8333 108.762 61.8334 108.762 61.8335 108.762C61.8336 108.762 61.8337 108.762 61.8338 108.762C61.834 108.762 61.8341 108.762 61.8342 108.762C61.8343 108.761 61.8344 108.761 61.8345 108.761C61.8346 108.761 61.8347 108.761 61.8348 108.761C61.835 108.761 61.8351 108.761 61.8352 108.761C61.8353 108.761 61.8354 108.761 61.8355 108.761C61.8356 108.761 61.8357 108.761 61.8358 108.761C61.8359 108.761 61.836 108.761 61.8361 108.761C61.8362 108.761 61.8363 108.761 61.8364 108.761C61.8365 108.761 61.8366 108.761 61.8367 108.761C61.8368 108.761 61.8369 108.761 61.837 108.761C61.8371 108.761 61.8372 108.761 61.8373 108.761C61.8374 108.761 61.8375 108.761 61.8376 108.761C61.8377 108.761 61.8377 108.761 61.8378 108.761C61.8379 108.761 61.838 108.761 61.8381 108.761C61.8382 108.761 61.8383 108.761 61.8384 108.761C61.8384 108.761 61.8385 108.761 61.8386 108.761C61.8387 108.761 61.8388 108.761 61.8389 108.761C61.8389 108.761 61.839 108.761 61.8391 108.761C61.8392 108.761 61.8393 108.761 61.8393 108.761C61.8394 108.761 61.8395 108.761 61.8396 108.761C61.8397 108.761 61.8397 108.761 61.8398 108.761C61.8399 108.761 61.84 108.761 61.84 108.761C61.8401 108.761 61.8402 108.761 61.8402 108.761C61.8403 108.761 61.8404 108.761 61.8404 108.761C61.8405 108.761 61.8406 108.761 61.8406 108.761C61.8407 108.761 61.8408 108.761 61.8408 108.761C61.8409 108.761 61.841 108.761 61.841 108.761C61.8411 108.761 61.8412 108.761 61.8412 108.761C61.8413 108.761 61.8413 108.761 61.8414 108.761C61.8415 108.761 61.8415 108.761 61.8416 108.761C61.8416 108.761 61.8417 108.761 61.8417 108.761C61.8418 108.761 61.8418 108.761 61.8419 108.761C61.842 108.761 61.842 108.761 61.8421 108.761C61.8421 108.761 61.8422 108.761 61.8422 108.761C61.8423 108.76 61.8423 108.76 61.8423 108.76C61.8424 108.76 61.8424 108.76 61.8425 108.76C61.8425 108.76 61.8426 108.76 61.8426 108.76C61.8427 108.76 61.8427 108.76 61.8427 108.76C61.8428 108.76 61.8428 108.76 61.8429 108.76C61.8429 108.76 61.8429 108.76 61.843 108.76C61.843 108.76 61.843 108.76 61.8431 108.76C61.8431 108.76 61.8432 108.76 61.8432 108.76C61.8432 108.76 61.8433 108.76 61.8433 108.76C61.8433 108.76 61.8433 108.76 61.8434 108.76C61.8434 108.76 61.8434 108.76 61.8435 108.76C61.8435 108.76 61.8435 108.76 61.8435 108.76C61.8436 108.76 61.8436 108.76 61.8436 108.76C61.8436 108.76 61.8437 108.76 61.8437 108.76C61.8437 108.76 61.8437 108.76 61.8437 108.76C61.8438 108.76 61.8438 108.76 61.8438 108.76C61.8438 108.76 61.8438 108.76 61.8438 108.76C61.8439 108.76 61.8439 108.76 61.8439 108.76C61.8439 108.76 61.8439 108.76 61.8439 108.76C61.8439 108.76 61.844 108.76 61.844 108.76C61.844 108.76 61.844 108.76 61.844 108.76C61.844 108.76 61.844 108.76 61.844 108.76C61.844 108.76 61.844 108.76 61.844 108.76C61.844 108.76 61.844 108.76 61.844 108.76C61.844 108.76 61.844 108.76 61.72 107.768C61.596 106.776 61.596 106.776 61.596 106.776C61.596 106.776 61.596 106.776 61.596 106.776C61.596 106.776 61.5959 106.776 61.5959 106.776C61.5959 106.776 61.5959 106.776 61.5959 106.776C61.5959 106.776 61.5959 106.776 61.5959 106.776C61.5959 106.776 61.5959 106.776 61.5959 106.776C61.5958 106.776 61.5958 106.776 61.5958 106.776C61.5958 106.776 61.5958 106.776 61.5958 106.776C61.5958 106.776 61.5957 106.776 61.5957 106.776C61.5957 106.776 61.5957 106.776 61.5957 106.776C61.5957 106.776 61.5956 106.776 61.5956 106.776C61.5956 106.776 61.5956 106.776 61.5955 106.776C61.5955 106.776 61.5955 106.776 61.5955 106.776C61.5954 106.776 61.5954 106.776 61.5954 106.776C61.5954 106.776 61.5953 106.776 61.5953 106.776C61.5953 106.776 61.5952 106.776 61.5952 106.776C61.5952 106.776 61.5952 106.776 61.5951 106.776C61.5951 106.776 61.5951 106.776 61.595 106.776C61.595 106.776 61.5949 106.776 61.5949 106.776C61.5949 106.776 61.5948 106.776 61.5948 106.776C61.5948 106.776 61.5947 106.776 61.5947 106.776C61.5946 106.776 61.5946 106.776 61.5945 106.776C61.5945 106.776 61.5945 106.776 61.5944 106.776C61.5944 106.776 61.5943 106.776 61.5943 106.776C61.5942 106.776 61.5942 106.776 61.5941 106.776C61.5941 106.776 61.594 106.776 61.594 106.776C61.5939 106.776 61.5939 106.776 61.5938 106.776C61.5938 106.776 61.5937 106.776 61.5937 106.776C61.5936 106.776 61.5936 106.776 61.5935 106.776C61.5934 106.776 61.5934 106.776 61.5933 106.776C61.5933 106.776 61.5932 106.776 61.5932 106.776C61.5931 106.776 61.593 106.776 61.593 106.776C61.5929 106.776 61.5928 106.776 61.5928 106.776C61.5927 106.776 61.5926 106.776 61.5926 106.776C61.5925 106.776 61.5924 106.776 61.5924 106.776C61.5923 106.776 61.5922 106.776 61.5922 106.776C61.5921 106.776 61.592 106.776 61.592 106.776C61.5919 106.776 61.5918 106.776 61.5917 106.776C61.5917 106.776 61.5916 106.776 61.5915 106.776C61.5914 106.776 61.5914 106.776 61.5913 106.776C61.5912 106.776 61.5911 106.776 61.591 106.776C61.591 106.776 61.5909 106.776 61.5908 106.776C61.5907 106.776 61.5906 106.776 61.5906 106.776C61.5905 106.776 61.5904 106.776 61.5903 106.776C61.5902 106.776 61.5901 106.776 61.59 106.776C61.5899 106.776 61.5899 106.776 61.5898 106.776C61.5897 106.777 61.5896 106.777 61.5895 106.777C61.5894 106.777 61.5893 106.777 61.5892 106.777C61.5891 106.777 61.589 106.777 61.5889 106.777C61.5888 106.777 61.5887 106.777 61.5886 106.777C61.5885 106.777 61.5884 106.777 61.5883 106.777C61.5882 106.777 61.5881 106.777 61.588 106.777C61.5879 106.777 61.5878 106.777 61.5877 106.777C61.5876 106.777 61.5875 106.777 61.5874 106.777C61.5873 106.777 61.5872 106.777 61.5871 106.777C61.587 106.777 61.5869 106.777 61.5868 106.777C61.5867 106.777 61.5866 106.777 61.5864 106.777C61.5863 106.777 61.5862 106.777 61.5861 106.777C61.586 106.777 61.5859 106.777 61.5858 106.777C61.5857 106.777 61.5855 106.777 61.5854 106.777C61.5853 106.777 61.5852 106.777 61.5851 106.777C61.5849 106.777 61.5848 106.777 61.5847 106.777C61.5846 106.777 61.5845 106.777 61.5843 106.777C61.5842 106.777 61.5841 106.777 61.584 106.777C61.5838 106.777 61.5837 106.777 61.5836 106.777C61.5835 106.777 61.5833 106.777 61.5832 106.777C61.5831 106.777 61.5829 106.777 61.5828 106.777C61.5827 106.777 61.5826 106.777 61.5824 106.777C61.5823 106.777 61.5822 106.777 61.582 106.777C61.5819 106.777 61.5817 106.777 61.5816 106.778C61.5815 106.778 61.5813 106.778 61.5812 106.778C61.5811 106.778 61.5809 106.778 61.5808 106.778C61.5806 106.778 61.5805 106.778 61.5804 106.778C61.5802 106.778 61.5801 106.778 61.5799 106.778C61.5798 106.778 61.5796 106.778 61.5795 106.778C61.5793 106.778 61.5792 106.778 61.579 106.778C61.5789 106.778 61.5787 106.778 61.5786 106.778C61.5784 106.778 61.5783 106.778 61.5781 106.778C61.578 106.778 61.5778 106.778 61.5777 106.778C61.5775 106.778 61.5774 106.778 61.5772 106.778C61.5771 106.778 61.5769 106.778 61.5767 106.778C61.5766 106.778 61.5764 106.778 61.5763 106.778C61.5761 106.778 61.5759 106.778 61.5758 106.778C61.5756 106.778 61.5755 106.778 61.5753 106.778C61.5751 106.778 61.575 106.778 61.5748 106.778C61.5746 106.778 61.5745 106.778 61.5743 106.778C61.5741 106.778 61.574 106.778 61.5738 106.778C61.5736 106.779 61.5735 106.779 61.5733 106.779C61.5731 106.779 61.5729 106.779 61.5728 106.779C61.5726 106.779 61.5724 106.779 61.5722 106.779C61.5721 106.779 61.5719 106.779 61.5717 106.779C61.5715 106.779 61.5714 106.779 61.5712 106.779C61.571 106.779 61.5708 106.779 61.5706 106.779C61.5704 106.779 61.5703 106.779 61.5701 106.779C61.5699 106.779 61.5697 106.779 61.5695 106.779C61.5693 106.779 61.5692 106.779 61.569 106.779C61.5688 106.779 61.5686 106.779 61.5684 106.779C61.5682 106.779 61.568 106.779 61.5678 106.779C61.5676 106.779 61.5674 106.779 61.5673 106.779C61.5671 106.779 61.5669 106.779 61.5667 106.779C61.5665 106.779 61.5663 106.779 61.5661 106.779C61.5659 106.779 61.5657 106.78 61.5655 106.78C61.5653 106.78 61.5651 106.78 61.5649 106.78C61.5647 106.78 61.5645 106.78 61.5643 106.78C61.5641 106.78 61.5639 106.78 61.5637 106.78C61.5635 106.78 61.5633 106.78 61.563 106.78C61.5628 106.78 61.5626 106.78 61.5624 106.78C61.5622 106.78 61.562 106.78 61.5618 106.78C61.5616 106.78 61.5614 106.78 61.5612 106.78C61.5609 106.78 61.5607 106.78 61.5605 106.78C61.5603 106.78 61.5601 106.78 61.5599 106.78C61.5597 106.78 61.5594 106.78 61.5592 106.78C61.559 106.78 61.5588 106.78 61.5586 106.78C61.5583 106.78 61.5581 106.78 61.5579 106.78C61.5577 106.781 61.5574 106.781 61.5572 106.781C61.557 106.781 61.5568 106.781 61.5565 106.781C61.5563 106.781 61.5561 106.781 61.5559 106.781C61.5556 106.781 61.5554 106.781 61.5552 106.781C61.5549 106.781 61.5547 106.781 61.5545 106.781C61.5542 106.781 61.554 106.781 61.5538 106.781C61.5535 106.781 61.5533 106.781 61.5531 106.781C61.5528 106.781 61.5526 106.781 61.5524 106.781C61.5521 106.781 61.5519 106.781 61.5516 106.781C61.5514 106.781 61.5512 106.781 61.5509 106.781C61.5507 106.781 61.5504 106.781 61.5502 106.781C61.5499 106.781 61.5497 106.782 61.5495 106.782C61.5492 106.782 61.549 106.782 61.5487 106.782C61.5485 106.782 61.5482 106.782 61.548 106.782C61.5477 106.782 61.5475 106.782 61.5472 106.782C61.547 106.782 61.5467 106.782 61.5465 106.782C61.5462 106.782 61.5459 106.782 61.5457 106.782C61.5454 106.782 61.5452 106.782 61.5449 106.782C61.5447 106.782 61.5444 106.782 61.5441 106.782C61.5439 106.782 61.5436 106.782 61.5434 106.782C61.5431 106.782 61.5428 106.782 61.5426 106.782C61.5423 106.782 61.542 106.782 61.5418 106.782C61.5415 106.783 61.5412 106.783 61.541 106.783C61.5407 106.783 61.5404 106.783 61.5402 106.783C61.5399 106.783 61.5396 106.783 61.5394 106.783C61.5391 106.783 61.5388 106.783 61.5385 106.783C61.5383 106.783 61.538 106.783 61.5377 106.783C61.5374 106.783 61.5372 106.783 61.5369 106.783C61.5366 106.783 61.5363 106.783 61.5361 106.783C61.5358 106.783 61.5355 106.783 61.5352 106.783C61.5349 106.783 61.5347 106.783 61.5344 106.783C61.5341 106.783 61.5338 106.783 61.5335 106.784C61.5332 106.784 61.5329 106.784 61.5327 106.784C61.5324 106.784 61.5321 106.784 61.5318 106.784C61.5315 106.784 61.5312 106.784 61.5309 106.784C61.5306 106.784 61.5303 106.784 61.53 106.784C61.5298 106.784 61.5295 106.784 61.5292 106.784C61.5289 106.784 61.5286 106.784 61.5283 106.784C61.528 106.784 61.5277 106.784 61.5274 106.784C61.5271 106.784 61.5268 106.784 61.5265 106.784C61.5262 106.784 61.5259 106.784 61.5256 106.785C61.5253 106.785 61.525 106.785 61.5247 106.785C61.5244 106.785 61.5241 106.785 61.5238 106.785C61.5234 106.785 61.5231 106.785 61.5228 106.785C61.5225 106.785 61.5222 106.785 61.5219 106.785C61.5216 106.785 61.5213 106.785 61.521 106.785C61.5207 106.785 61.5203 106.785 61.52 106.785C61.5197 106.785 61.5194 106.785 61.5191 106.785C61.5188 106.785 61.5184 106.785 61.5181 106.785C61.5178 106.785 61.5175 106.786 61.5172 106.786C61.5169 106.786 61.5165 106.786 61.5162 106.786C61.5159 106.786 61.5156 106.786 61.5152 106.786C61.5149 106.786 61.5146 106.786 61.5143 106.786C61.5139 106.786 61.5136 106.786 61.5133 106.786C61.513 106.786 61.5126 106.786 61.5123 106.786C61.512 106.786 61.5116 106.786 61.5113 106.786C61.511 106.786 61.5106 106.786 61.5103 106.786C61.51 106.786 61.5096 106.787 61.5093 106.787C61.509 106.787 61.5086 106.787 61.5083 106.787C61.5079 106.787 61.5076 106.787 61.5073 106.787C61.5069 106.787 61.5066 106.787 61.5062 106.787C61.5059 106.787 61.5056 106.787 61.5052 106.787C61.5049 106.787 61.5045 106.787 61.5042 106.787C61.5038 106.787 61.5035 106.787 61.5031 106.787C61.5028 106.787 61.5024 106.787 61.5021 106.787C61.5017 106.787 61.5014 106.788 61.501 106.788C61.5007 106.788 61.5003 106.788 61.5 106.788C61.4996 106.788 61.4993 106.788 61.4989 106.788C61.4986 106.788 61.4982 106.788 61.4979 106.788C61.4975 106.788 61.4971 106.788 61.4968 106.788C61.4964 106.788 61.4961 106.788 61.4957 106.788C61.4953 106.788 61.495 106.788 61.4946 106.788C61.4942 106.788 61.4939 106.788 61.4935 106.789C61.4932 106.789 61.4928 106.789 61.4924 106.789C61.4921 106.789 61.4917 106.789 61.4913 106.789C61.4909 106.789 61.4906 106.789 61.4902 106.789C61.4898 106.789 61.4895 106.789 61.4891 106.789C61.4887 106.789 61.4883 106.789 61.488 106.789C61.4876 106.789 61.4872 106.789 61.4868 106.789C61.4865 106.789 61.4861 106.789 61.4857 106.79C61.4853 106.79 61.4849 106.79 61.4846 106.79C61.4842 106.79 61.4838 106.79 61.4834 106.79C61.483 106.79 61.4827 106.79 61.4823 106.79C61.4819 106.79 61.4815 106.79 61.4811 106.79C61.4807 106.79 61.4803 106.79 61.4799 106.79C61.4796 106.79 61.4792 106.79 61.4788 106.79C61.4784 106.79 61.478 106.79 61.4776 106.791C61.4772 106.791 61.4768 106.791 61.4764 106.791C61.476 106.791 61.4756 106.791 61.4752 106.791C61.4748 106.791 61.4744 106.791 61.474 106.791C61.4736 106.791 61.4732 106.791 61.4728 106.791C61.4724 106.791 61.472 106.791 61.4716 106.791C61.4712 106.791 61.4708 106.791 61.4704 106.791C61.47 106.791 61.4696 106.792 61.4692 106.792C61.4688 106.792 61.4684 106.792 61.468 106.792C61.4676 106.792 61.4672 106.792 61.4668 106.792C61.4664 106.792 61.4659 106.792 61.4655 106.792C61.4651 106.792 61.4647 106.792 61.4643 106.792C61.4639 106.792 61.4635 106.792 61.4631 106.792C61.4626 106.792 61.4622 106.792 61.4618 106.792C61.4614 106.793 61.461 106.793 61.4605 106.793C61.4601 106.793 61.4597 106.793 61.4593 106.793C61.4589 106.793 61.4584 106.793 61.458 106.793C61.4576 106.793 61.4572 106.793 61.4567 106.793C61.4563 106.793 61.4559 106.793 61.4555 106.793C61.455 106.793 61.4546 106.793 61.4542 106.793C61.4537 106.793 61.4533 106.794 61.4529 106.794C61.4524 106.794 61.452 106.794 61.4516 106.794C61.4511 106.794 61.4507 106.794 61.4503 106.794C61.4498 106.794 61.4494 106.794 61.449 106.794C61.4485 106.794 61.4481 106.794 61.4477 106.794C61.4472 106.794 61.4468 106.794 61.4463 106.794C61.4459 106.794 61.4454 106.795 61.445 106.795C61.4446 106.795 61.4441 106.795 61.4437 106.795C61.4432 106.795 61.4428 106.795 61.4423 106.795C61.4419 106.795 61.4414 106.795 61.441 106.795C61.4405 106.795 61.4401 106.795 61.4396 106.795C61.4392 106.795 61.4387 106.795 61.4383 106.795C61.4378 106.795 61.4374 106.796 61.4369 106.796C61.4365 106.796 61.436 106.796 61.4355 106.796C61.4351 106.796 61.4346 106.796 61.4342 106.796C61.4337 106.796 61.4333 106.796 61.4328 106.796C61.4323 106.796 61.4319 106.796 61.4314 106.796C61.4309 106.796 61.4305 106.796 61.43 106.796C61.4296 106.797 61.4291 106.797 61.4286 106.797C61.4282 106.797 61.4277 106.797 61.4272 106.797C61.4267 106.797 61.4263 106.797 61.4258 106.797C61.4253 106.797 61.4249 106.797 61.4244 106.797C61.4239 106.797 61.4234 106.797 61.423 106.797C61.4225 106.797 61.422 106.797 61.4215 106.798C61.4211 106.798 61.4206 106.798 61.4201 106.798C61.4196 106.798 61.4192 106.798 61.4187 106.798C61.4182 106.798 61.4177 106.798 61.4172 106.798C61.4167 106.798 61.4163 106.798 61.4158 106.798C61.4153 106.798 61.4148 106.798 61.4143 106.798C61.4138 106.798 61.4134 106.799 61.4129 106.799C61.4124 106.799 61.4119 106.799 61.4114 106.799C61.4109 106.799 61.4104 106.799 61.4099 106.799C61.4094 106.799 61.4089 106.799 61.4084 106.799C61.4079 106.799 61.4075 106.799 61.407 106.799C61.4065 106.799 61.406 106.799 61.4055 106.8C61.405 106.8 61.4045 106.8 61.404 106.8C61.4035 106.8 61.403 106.8 61.4025 106.8C61.402 106.8 61.4015 106.8 61.401 106.8C61.4005 106.8 61.3999 106.8 61.3994 106.8C61.3989 106.8 61.3984 106.8 61.3979 106.8C61.3974 106.801 61.3969 106.801 61.3964 106.801C61.3959 106.801 61.3954 106.801 61.3949 106.801C61.3944 106.801 61.3938 106.801 61.3933 106.801C61.3928 106.801 61.3923 106.801 61.3918 106.801C61.3913 106.801 61.3907 106.801 61.3902 106.801C61.3897 106.802 61.3892 106.802 61.3887 106.802C61.3882 106.802 61.3876 106.802 61.3871 106.802C61.3866 106.802 61.3861 106.802 61.3855 106.802C61.385 106.802 61.3845 106.802 61.384 106.802C61.3834 106.802 61.3829 106.802 61.3824 106.802C61.3819 106.802 61.3813 106.803 61.3808 106.803C61.3803 106.803 61.3797 106.803 61.3792 106.803C61.3787 106.803 61.3782 106.803 61.3776 106.803C61.3771 106.803 61.3766 106.803 61.376 106.803C61.3755 106.803 61.3749 106.803 61.3744 106.803C61.3739 106.803 61.3733 106.804 61.3728 106.804C61.3723 106.804 61.3717 106.804 61.3712 106.804C61.3706 106.804 61.3701 106.804 61.3695 106.804C61.369 106.804 61.3685 106.804 61.3679 106.804C61.3674 106.804 61.3668 106.804 61.3663 106.804C61.3657 106.804 61.3652 106.805 61.3646 106.805C61.3641 106.805 61.3635 106.805 61.363 106.805C61.3624 106.805 61.3619 106.805 61.3613 106.805C61.3608 106.805 61.3602 106.805 61.3597 106.805C61.3591 106.805 61.3586 106.805 61.358 106.805C61.3574 106.806 61.3569 106.806 61.3563 106.806C61.3558 106.806 61.3552 106.806 61.3547 106.806C61.3541 106.806 61.3535 106.806 61.353 106.806C61.3524 106.806 61.3518 106.806 61.3513 106.806C61.3507 106.806 61.3501 106.806 61.3496 106.807C61.349 106.807 61.3484 106.807 61.3479 106.807C61.3473 106.807 61.3467 106.807 61.3462 106.807C61.3456 106.807 61.345 106.807 61.3445 106.807C61.3439 106.807 61.3433 106.807 61.3427 106.807C61.3422 106.807 61.3416 106.808 61.341 106.808C61.3404 106.808 61.3399 106.808 61.3393 106.808C61.3387 106.808 61.3381 106.808 61.3375 106.808C61.337 106.808 61.3364 106.808 61.3358 106.808C61.3352 106.808 61.3346 106.808 61.3341 106.808C61.3335 106.809 61.3329 106.809 61.3323 106.809C61.3317 106.809 61.3311 106.809 61.3305 106.809C61.3299 106.809 61.3294 106.809 61.3288 106.809C61.3282 106.809 61.3276 106.809 61.327 106.809C61.3264 106.809 61.3258 106.809 61.3252 106.81C61.3246 106.81 61.324 106.81 61.3234 106.81C61.3228 106.81 61.3222 106.81 61.3216 106.81C61.321 106.81 61.3204 106.81 61.3198 106.81C61.3192 106.81 61.3186 106.81 61.318 106.81C61.3174 106.811 61.3168 106.811 61.3162 106.811C61.3156 106.811 61.315 106.811 61.3144 106.811C61.3138 106.811 61.3132 106.811 61.3126 106.811C61.312 106.811 61.3114 106.811 61.3108 106.811C61.3102 106.811 61.3096 106.812 61.3089 106.812C61.3083 106.812 61.3077 106.812 61.3071 106.812C61.3065 106.812 61.3059 106.812 61.3053 106.812C61.3047 106.812 61.304 106.812 61.3034 106.812C61.3028 106.812 61.3022 106.812 61.3016 106.813C61.3009 106.813 61.3003 106.813 61.2997 106.813C61.2991 106.813 61.2985 106.813 61.2978 106.813C61.2972 106.813 61.2966 106.813 61.296 106.813C61.2953 106.813 61.2947 106.813 61.2941 106.813C61.2935 106.814 61.2928 106.814 61.2922 106.814C61.2916 106.814 61.2909 106.814 61.2903 106.814C61.2897 106.814 61.2891 106.814 61.2884 106.814C61.2878 106.814 61.2872 106.814 61.2865 106.814C61.2859 106.814 61.2852 106.815 61.2846 106.815C61.284 106.815 61.2833 106.815 61.2827 106.815C61.2821 106.815 61.2814 106.815 61.2808 106.815C61.2801 106.815 61.2795 106.815 61.2789 106.815C61.2782 106.815 61.2776 106.816 61.2769 106.816C61.2763 106.816 61.2756 106.816 61.275 106.816C61.2743 106.816 61.2737 106.816 61.273 106.816C61.2724 106.816 61.2717 106.816 61.2711 106.816C61.2704 106.816 61.2698 106.816 61.2691 106.817C61.2685 106.817 61.2678 106.817 61.2672 106.817C61.2665 106.817 61.2659 106.817 61.2652 106.817C61.2646 106.817 61.2639 106.817 61.2632 106.817C61.2626 106.817 61.2619 106.817 61.2613 106.818C61.2606 106.818 61.2599 106.818 61.2593 106.818C61.2586 106.818 61.258 106.818 61.2573 106.818C61.2566 106.818 61.256 106.818 61.2553 106.818C61.2546 106.818 61.254 106.818 61.2533 106.819C61.2526 106.819 61.252 106.819 61.2513 106.819C61.2506 106.819 61.25 106.819 61.2493 106.819C61.2486 106.819 61.2479 106.819 61.2473 106.819C61.2466 106.819 61.2459 106.819 61.2452 106.82C61.2446 106.82 61.2439 106.82 61.2432 106.82C61.2425 106.82 61.2418 106.82 61.2412 106.82C61.2405 106.82 61.2398 106.82 61.2391 106.82C61.2384 106.82 61.2378 106.82 61.2371 106.821C61.2364 106.821 61.2357 106.821 61.235 106.821C61.2343 106.821 61.2337 106.821 61.233 106.821C61.2323 106.821 61.2316 106.821 61.2309 106.821C61.2302 106.821 61.2295 106.822 61.2288 106.822C61.2281 106.822 61.2274 106.822 61.2268 106.822C61.2261 106.822 61.2254 106.822 61.2247 106.822C61.224 106.822 61.2233 106.822 61.2226 106.822C61.2219 106.822 61.2212 106.823 61.2205 106.823C61.2198 106.823 61.2191 106.823 61.2184 106.823C61.2177 106.823 61.217 106.823 61.2163 106.823C61.2156 106.823 61.2149 106.823 61.2142 106.823C61.2135 106.824 61.2128 106.824 61.212 106.824C61.2113 106.824 61.2106 106.824 61.2099 106.824C61.2092 106.824 61.2085 106.824 61.2078 106.824C61.2071 106.824 61.2064 106.824 61.2057 106.825C61.2049 106.825 61.2042 106.825 61.2035 106.825C61.2028 106.825 61.2021 106.825 61.2014 106.825C61.2007 106.825 61.1999 106.825 61.1992 106.825C61.1985 106.825 61.1978 106.825 61.1971 106.826C61.1963 106.826 61.1956 106.826 61.1949 106.826C61.1942 106.826 61.1934 106.826 61.1927 106.826C61.192 106.826 61.1913 106.826 61.1905 106.826C61.1898 106.826 61.1891 106.827 61.1884 106.827C61.1876 106.827 61.1869 106.827 61.1862 106.827C61.1854 106.827 61.1847 106.827 61.184 106.827C61.1832 106.827 61.1825 106.827 61.1818 106.827C61.181 106.828 61.1803 106.828 61.1796 106.828C61.1788 106.828 61.1781 106.828 61.1774 106.828C61.1766 106.828 61.1759 106.828 61.1751 106.828C61.1744 106.828 61.1737 106.829 61.1729 106.829C61.1722 106.829 61.1714 106.829 61.1707 106.829C61.1699 106.829 61.1692 106.829 61.1685 106.829C61.1677 106.829 61.167 106.829 61.1662 106.829C61.1655 106.83 61.1647 106.83 61.164 106.83C61.1632 106.83 61.1625 106.83 61.1617 106.83C61.161 106.83 61.1602 106.83 61.1595 106.83C61.1587 106.83 61.1579 106.83 61.1572 106.831C61.1564 106.831 61.1557 106.831 61.1549 106.831C61.1542 106.831 61.1534 106.831 61.1526 106.831C61.1519 106.831 61.1511 106.831 61.1504 106.831C61.1496 106.832 61.1488 106.832 61.1481 106.832C61.1473 106.832 61.1465 106.832 61.1458 106.832C61.145 106.832 61.1442 106.832 61.1435 106.832C61.1427 106.832 61.1419 106.832 61.1412 106.833C61.1404 106.833 61.1396 106.833 61.1389 106.833C61.1381 106.833 61.1373 106.833 61.1365 106.833C61.1358 106.833 61.135 106.833 61.1342 106.833C61.1334 106.834 61.1327 106.834 61.1319 106.834C61.1311 106.834 61.1303 106.834 61.1296 106.834C61.1288 106.834 61.128 106.834 61.1272 106.834C61.1264 106.834 61.1257 106.835 61.1249 106.835C61.1241 106.835 61.1233 106.835 61.1225 106.835C61.1217 106.835 61.1209 106.835 61.1202 106.835C61.1194 106.835 61.1186 106.835 61.1178 106.835C61.117 106.836 61.1162 106.836 61.1154 106.836C61.1146 106.836 61.1138 106.836 61.113 106.836C61.1123 106.836 61.1115 106.836 61.1107 106.836C61.1099 106.836 61.1091 106.837 61.1083 106.837C61.1075 106.837 61.1067 106.837 61.1059 106.837C61.1051 106.837 61.1043 106.837 61.1035 106.837C61.1027 106.837 61.1019 106.837 61.1011 106.838C61.1003 106.838 61.0995 106.838 61.0987 106.838C61.0979 106.838 61.0971 106.838 61.0963 106.838C61.0954 106.838 61.0946 106.838 61.0938 106.838C61.093 106.839 61.0922 106.839 61.0914 106.839C61.0906 106.839 61.0898 106.839 61.089 106.839C61.0882 106.839 61.0873 106.839 61.0865 106.839C61.0857 106.84 61.0849 106.84 61.0841 106.84C61.0833 106.84 61.0824 106.84 61.0816 106.84C61.0808 106.84 61.08 106.84 61.0792 106.84C61.0784 106.84 61.0775 106.841 61.0767 106.841C61.0759 106.841 61.0751 106.841 61.0742 106.841C61.0734 106.841 61.0726 106.841 61.0718 106.841C61.0709 106.841 61.0701 106.841 61.0693 106.842C61.0685 106.842 61.0676 106.842 61.0668 106.842C61.066 106.842 61.0651 106.842 61.0643 106.842C61.0635 106.842 61.0626 106.842 61.0618 106.842C61.061 106.843 61.0601 106.843 61.0593 106.843C61.0585 106.843 61.0576 106.843 61.0568 106.843C61.0559 106.843 61.0551 106.843 61.0543 106.843C61.0534 106.844 61.0526 106.844 61.0517 106.844C61.0509 106.844 61.0501 106.844 61.0492 106.844C61.0484 106.844 61.0475 106.844 61.0467 106.844C61.0458 106.844 61.045 106.845 61.0441 106.845C61.0433 106.845 61.0424 106.845 61.0416 106.845C61.0407 106.845 61.0399 106.845 61.039 106.845C61.0382 106.845 61.0373 106.846 61.0365 106.846C61.0356 106.846 61.0348 106.846 61.0339 106.846C61.0331 106.846 61.0322 106.846 61.0314 106.846C61.0305 106.846 61.0296 106.847 61.0288 106.847C61.0279 106.847 61.0271 106.847 61.0262 106.847C61.0253 106.847 61.0245 106.847 61.0236 106.847C61.0227 106.847 61.0219 106.847 61.021 106.848C61.0202 106.848 61.0193 106.848 61.0184 106.848C61.0176 106.848 61.0167 106.848 61.0158 106.848C61.0149 106.848 61.0141 106.848 61.0132 106.849C61.0123 106.849 61.0115 106.849 61.0106 106.849C61.0097 106.849 61.0088 106.849 61.008 106.849C61.0071 106.849 61.0062 106.849 61.0053 106.85C61.0045 106.85 61.0036 106.85 61.0027 106.85C61.0018 106.85 61.0009 106.85 61.0001 106.85C60.9992 106.85 60.9983 106.85 60.9974 106.851C60.9965 106.851 60.9957 106.851 60.9948 106.851C60.9939 106.851 60.993 106.851 60.9921 106.851C60.9912 106.851 60.9903 106.851 60.9894 106.852C60.9886 106.852 60.9877 106.852 60.9868 106.852C60.9859 106.852 60.985 106.852 60.9841 106.852C60.9832 106.852 60.9823 106.852 60.9814 106.853C60.9805 106.853 60.9796 106.853 60.9787 106.853C60.9778 106.853 60.9769 106.853 60.976 106.853C60.9751 106.853 60.9742 106.853 60.9733 106.854C60.9724 106.854 60.9715 106.854 60.9706 106.854C60.9697 106.854 60.9688 106.854 60.9679 106.854C60.967 106.854 60.9661 106.854 60.9652 106.855C60.9643 106.855 60.9634 106.855 60.9625 106.855C60.9616 106.855 60.9607 106.855 60.9598 106.855C60.9589 106.855 60.9579 106.855 60.957 106.856C60.9561 106.856 60.9552 106.856 60.9543 106.856C60.9534 106.856 60.9525 106.856 60.9516 106.856C60.9506 106.856 60.9497 106.857 60.9488 106.857C60.9479 106.857 60.947 106.857 60.946 106.857C60.9451 106.857 60.9442 106.857 60.9433 106.857C60.9424 106.857 60.9414 106.858 60.9405 106.858C60.9396 106.858 60.9387 106.858 60.9377 106.858C60.9368 106.858 60.9359 106.858 60.935 106.858C60.934 106.858 60.9331 106.859 60.9322 106.859C60.9312 106.859 60.9303 106.859 60.9294 106.859C60.9284 106.859 60.9275 106.859 60.9266 106.859C60.9256 106.86 60.9247 106.86 60.9238 106.86C60.9228 106.86 60.9219 106.86 60.921 106.86C60.92 106.86 60.9191 106.86 60.9182 106.86C60.9172 106.861 60.9163 106.861 60.9153 106.861C60.9144 106.861 60.9134 106.861 60.9125 106.861C60.9116 106.861 60.9106 106.861 60.9097 106.862C60.9087 106.862 60.9078 106.862 60.9068 106.862C60.9059 106.862 60.9049 106.862 60.904 106.862C60.903 106.862 60.9021 106.862 60.9011 106.863C60.9002 106.863 60.8992 106.863 60.8983 106.863C60.8973 106.863 60.8964 106.863 60.8954 106.863C60.8945 106.863 60.8935 106.864 60.8925 106.864C60.8916 106.864 60.8906 106.864 60.8897 106.864C60.8887 106.864 60.8878 106.864 60.8868 106.864C60.8858 106.864 60.8849 106.865 60.8839 106.865C60.8829 106.865 60.882 106.865 60.881 106.865C60.8801 106.865 60.8791 106.865 60.8781 106.865C60.8772 106.866 60.8762 106.866 60.8752 106.866C60.8742 106.866 60.8733 106.866 60.8723 106.866C60.8713 106.866 60.8704 106.866 60.8694 106.867C60.8684 106.867 60.8674 106.867 60.8665 106.867C60.8655 106.867 60.8645 106.867 60.8635 106.867C60.8626 106.867 60.8616 106.868 60.8606 106.868C60.8596 106.868 60.8587 106.868 60.8577 106.868C60.8567 106.868 60.8557 106.868 60.8547 106.868C60.8537 106.868 60.8528 106.869 60.8518 106.869C60.8508 106.869 60.8498 106.869 60.8488 106.869C60.8478 106.869 60.8469 106.869 60.8459 106.869C60.8449 106.87 60.8439 106.87 60.8429 106.87C60.8419 106.87 60.8409 106.87 60.8399 106.87C60.8389 106.87 60.8379 106.87 60.8369 106.871C60.8359 106.871 60.835 106.871 60.834 106.871C60.833 106.871 60.832 106.871 60.831 106.871C60.83 106.871 60.829 106.872 60.828 106.872L61.076 108.856ZM60.7245 107.674C60.3727 111.384 60.0691 114.435 59.8136 116.83L61.8024 117.042C62.0589 114.637 62.3633 111.576 62.7155 107.862L60.7245 107.674ZM59.8138 116.829C59.5578 119.197 59.3497 121.133 59.1896 122.638L61.1784 122.85C61.3383 121.347 61.5462 119.411 61.8022 117.043L59.8138 116.829ZM59.1878 122.657C59.0599 124.128 58.9321 125.55 58.8043 126.923L60.7957 127.109C60.9239 125.73 61.0521 124.304 61.1802 122.831L59.1878 122.657ZM58.8024 126.946C58.7072 128.312 58.5962 129.579 58.4698 130.749L60.4582 130.963C60.5878 129.765 60.7008 128.472 60.7976 127.086L58.8024 126.946ZM58.4698 130.749C58.342 131.931 58.2302 132.937 58.1346 133.765L60.1214 133.995C60.2178 133.159 60.33 132.149 60.4582 130.963L58.4698 130.749ZM59.128 134.88H59.992V132.88H59.128V134.88ZM60.9706 134.086L66.3465 108.55L64.3895 108.138L59.0135 133.674L60.9706 134.086ZM65.405 109.343C66.2809 109.311 67.1723 109.262 68.0792 109.197L67.9368 107.203C67.0517 107.266 66.1831 107.313 65.331 107.345L65.405 109.343ZM68.0877 109.197C68.8725 109.134 69.6902 109.087 70.541 109.055L70.467 107.057C69.5898 107.089 68.7435 107.138 67.9283 107.203L68.0877 109.197ZM70.5397 109.055C71.4608 109.022 72.3087 108.956 73.0813 108.856L72.8227 106.872C72.1233 106.964 71.3392 107.026 70.4683 107.057L70.5397 109.055ZM71.9991 107.561C71.5473 108.981 71.0802 110.543 70.5978 112.248L72.5222 112.792C72.9998 111.105 73.4607 109.563 73.9049 108.167L71.9991 107.561ZM70.5932 112.265C70.1466 113.955 69.6679 115.71 69.1572 117.53L71.0828 118.07C71.5961 116.242 72.0774 114.477 72.5268 112.775L70.5932 112.265ZM69.1529 117.546C68.6722 119.372 68.1915 121.231 67.7108 123.122L69.6492 123.614C70.1285 121.729 70.6078 119.876 71.0871 118.054L69.1529 117.546ZM67.707 123.137C67.2602 125.02 66.8135 126.839 66.3669 128.593L68.3051 129.087C68.7545 127.321 69.2038 125.492 69.653 123.599L67.707 123.137ZM66.3654 128.599C65.3404 132.731 64.3155 136.975 63.2906 141.331L65.2374 141.789C66.2605 137.441 67.2836 133.205 68.3066 129.081L66.3654 128.599ZM64.1151 140.571L51.6831 142.443L51.9809 144.421L64.4129 142.549L64.1151 140.571ZM87.3955 136.04L86.4933 135.609L86.4893 135.617L87.3955 136.04ZM84.6115 139.784L83.9458 139.038L83.9358 139.047L84.6115 139.784ZM80.4835 142.232L80.1448 141.291L80.1387 141.293L80.4835 142.232ZM71.5555 142.088L71.0736 142.964L71.0821 142.969L71.0907 142.973L71.5555 142.088ZM67.8595 138.776L66.9688 138.321L66.6778 138.892L67.0738 139.395L67.8595 138.776ZM71.4115 131.816L72.292 131.342L71.3878 129.663L70.5208 131.361L71.4115 131.816ZM72.4195 133.112L71.7124 133.819L71.7255 133.832L71.739 133.845L72.4195 133.112ZM73.9075 134.216L73.4005 135.078L73.4111 135.084L73.4219 135.09L73.9075 134.216ZM75.5875 135.032L75.2068 135.957L75.2386 135.97L75.2713 135.981L75.5875 135.032ZM78.3235 135.128L78.6176 136.084L78.3235 135.128ZM80.2915 133.688L79.4478 133.151L79.4408 133.162L79.434 133.174L80.2915 133.688ZM79.8595 130.376L79.0458 130.957L79.0616 130.979L79.0786 131.001L79.8595 130.376ZM78.0355 128.504L77.3986 129.275L77.4088 129.283L77.4192 129.292L78.0355 128.504ZM75.6355 126.68L75.06 127.498L75.6355 126.68ZM73.2355 124.76L72.545 125.483L72.553 125.491L72.5612 125.498L73.2355 124.76ZM71.4115 122.504L72.2632 121.98L71.4115 122.504ZM72.1315 115.064L72.955 115.631V115.631L72.1315 115.064ZM75.8275 111.368L76.3986 112.189L76.4021 112.186L75.8275 111.368ZM80.7235 108.872L80.397 107.927L80.7235 108.872ZM88.1635 108.296L87.8835 109.256L87.9021 109.261L87.921 109.266L88.1635 108.296ZM90.1315 109.304L89.4699 110.054L89.4931 110.074L89.5176 110.093L90.1315 109.304ZM91.4755 111.032L90.5651 111.446L90.5728 111.463L90.5811 111.479L91.4755 111.032ZM91.8595 115.016L90.8817 114.806L90.8744 114.84L90.8695 114.875L91.8595 115.016ZM91.6675 116.456L91.9457 117.417L92.5781 117.233L92.6598 116.58L91.6675 116.456ZM84.7075 118.472L83.7374 118.229L83.3157 119.916L84.9857 119.433L84.7075 118.472ZM84.8515 117.704L83.8814 117.461L83.8667 117.52L83.8592 117.58L84.8515 117.704ZM84.4195 114.872L83.6058 115.453L83.6296 115.487L83.6561 115.518L84.4195 114.872ZM82.1635 114.488L81.7163 113.594L81.7003 113.602L81.6846 113.61L82.1635 114.488ZM81.0595 115.256L81.6928 116.03L81.6997 116.024L81.0595 115.256ZM80.1475 116.312L79.2958 115.788L79.2958 115.788L80.1475 116.312ZM80.3875 119.576L79.6114 120.207L79.6229 120.221L79.6349 120.235L80.3875 119.576ZM84.0835 122.408L83.5372 123.246L83.5581 123.259L83.5796 123.272L84.0835 122.408ZM86.1955 124.184L86.9501 123.528L86.1955 124.184ZM87.7795 126.968L86.8421 127.316L86.8482 127.333L86.8548 127.349L87.7795 126.968ZM87.4515 131.144C87.4515 132.802 87.1268 134.284 86.4934 135.609L88.2976 136.471C89.0722 134.852 89.4515 133.07 89.4515 131.144H87.4515ZM86.4893 135.617C85.8746 136.934 85.0284 138.072 83.9459 139.038L85.2771 140.53C86.5626 139.384 87.5724 138.026 88.3017 136.463L86.4893 135.617ZM83.9358 139.047C82.8898 140.006 81.6311 140.756 80.1448 141.291L80.8222 143.173C82.5359 142.556 84.0292 141.674 85.2872 140.521L83.9358 139.047ZM80.1387 141.293C78.6908 141.825 77.1127 142.096 75.3955 142.096V144.096C77.3263 144.096 79.1402 143.791 80.8283 143.171L80.1387 141.293ZM75.3955 142.096C74.2974 142.096 73.1757 141.809 72.0203 141.203L71.0907 142.973C72.4953 143.711 73.9336 144.096 75.3955 144.096V142.096ZM72.0374 141.212C70.9053 140.589 69.7708 139.587 68.6452 138.157L67.0738 139.395C68.3162 140.973 69.6457 142.179 71.0736 142.964L72.0374 141.212ZM68.7502 139.231L72.3022 132.271L70.5208 131.361L66.9688 138.321L68.7502 139.231ZM70.531 132.29C70.8138 132.815 71.2174 133.324 71.7124 133.819L73.1266 132.405C72.7256 132.004 72.4572 131.649 72.292 131.342L70.531 132.29ZM71.739 133.845C72.2417 134.312 72.7962 134.722 73.4005 135.078L74.4145 133.354C73.9308 133.07 73.4933 132.744 73.1 132.379L71.739 133.845ZM73.4219 135.09C74.0278 135.427 74.6229 135.716 75.2068 135.957L75.9683 134.107C75.4641 133.9 74.9392 133.645 74.3931 133.342L73.4219 135.09ZM75.2713 135.981C75.9155 136.195 76.5375 136.32 77.1235 136.32V134.32C76.8135 134.32 76.4115 134.253 75.9037 134.083L75.2713 135.981ZM77.1235 136.32C77.6195 136.32 78.1188 136.237 78.6176 136.084L78.0294 134.172C77.6962 134.275 77.3955 134.32 77.1235 134.32V136.32ZM78.6176 136.084C79.1391 135.923 79.6224 135.682 80.0637 135.361L78.8873 133.743C78.6246 133.934 78.3399 134.077 78.0294 134.172L78.6176 136.084ZM80.0637 135.361C80.5064 135.039 80.8774 134.655 81.149 134.202L79.434 133.174C79.3216 133.361 79.1486 133.553 78.8873 133.743L80.0637 135.361ZM81.1352 134.225C81.4688 133.701 81.6275 133.112 81.6275 132.488H79.6275C79.6275 132.76 79.5621 132.971 79.4478 133.151L81.1352 134.225ZM81.6275 132.488C81.6275 131.477 81.284 130.556 80.6404 129.751L79.0786 131.001C79.459 131.476 79.6275 131.963 79.6275 132.488H81.6275ZM80.6732 129.795C80.1309 129.035 79.4534 128.344 78.6518 127.716L77.4192 129.292C78.0896 129.816 78.6281 130.373 79.0458 130.957L80.6732 129.795ZM78.6724 127.733C77.9146 127.107 77.0939 126.483 76.211 125.862L75.06 127.498C75.9051 128.093 76.6844 128.685 77.3986 129.275L78.6724 127.733ZM76.211 125.862C75.3795 125.277 74.6128 124.663 73.9098 124.022L72.5612 125.498C73.3302 126.201 74.1635 126.867 75.06 127.498L76.211 125.862ZM73.926 124.037C73.2843 123.424 72.7304 122.739 72.2632 121.98L70.5598 123.028C71.1166 123.933 71.7787 124.752 72.545 125.483L73.926 124.037ZM72.2632 121.98C71.8529 121.313 71.6435 120.568 71.6435 119.72H69.6435C69.6435 120.92 69.9461 122.031 70.5598 123.028L72.2632 121.98ZM71.6435 119.72C71.6435 118.269 72.0718 116.913 72.955 115.631L71.308 114.497C70.2072 116.095 69.6435 117.843 69.6435 119.72H71.6435ZM72.955 115.631C73.877 114.293 75.0227 113.146 76.3986 112.189L75.2564 110.547C73.6883 111.638 72.37 112.955 71.308 114.497L72.955 115.631ZM76.4021 112.186C77.8287 111.185 79.3771 110.395 81.05 109.817L80.397 107.927C78.5499 108.565 76.8343 109.439 75.2529 110.55L76.4021 112.186ZM81.05 109.817C82.7242 109.239 84.2772 108.96 85.7155 108.96V106.96C84.0177 106.96 82.2428 107.289 80.397 107.927L81.05 109.817ZM85.7155 108.96C86.4923 108.96 87.2134 109.061 87.8835 109.256L88.4435 107.336C87.5776 107.083 86.6667 106.96 85.7155 106.96V108.96ZM87.921 109.266C88.5481 109.423 89.0566 109.689 89.4699 110.054L90.7931 108.554C90.1184 107.959 89.3149 107.553 88.406 107.326L87.921 109.266ZM89.5176 110.093C89.9582 110.436 90.308 110.88 90.5651 111.446L92.3859 110.618C92.003 109.776 91.4568 109.068 90.7454 108.515L89.5176 110.093ZM90.5811 111.479C90.8441 112.005 91.0035 112.721 91.0035 113.672H93.0035C93.0035 112.511 92.8109 111.467 92.3699 110.585L90.5811 111.479ZM91.0035 113.672C91.0035 114.048 90.9633 114.426 90.8817 114.806L92.8373 115.226C92.9477 114.71 93.0035 114.192 93.0035 113.672H91.0035ZM90.8695 114.875C90.8046 115.329 90.7398 115.815 90.6752 116.332L92.6598 116.58C92.7232 116.073 92.7864 115.599 92.8494 115.157L90.8695 114.875ZM91.3893 115.495L84.4293 117.511L84.9857 119.433L91.9457 117.417L91.3893 115.495ZM85.6776 118.715C85.7512 118.42 85.8067 118.125 85.8438 117.828L83.8592 117.58C83.8323 117.795 83.7918 118.012 83.7374 118.229L85.6776 118.715ZM85.8216 117.947C85.9049 117.614 85.9475 117.276 85.9475 116.936H83.9475C83.9475 117.108 83.9261 117.282 83.8814 117.461L85.8216 117.947ZM85.9475 116.936C85.9475 115.902 85.7672 114.917 85.1829 114.226L83.6561 115.518C83.7758 115.659 83.9475 116.05 83.9475 116.936H85.9475ZM85.2332 114.291C84.7282 113.584 83.9951 113.2 83.1235 113.2V115.2C83.3399 115.2 83.4708 115.264 83.6058 115.453L85.2332 114.291ZM83.1235 113.2C82.6409 113.2 82.1569 113.373 81.7163 113.594L82.6107 115.382C82.9381 115.219 83.0941 115.2 83.1235 115.2V113.2ZM81.6846 113.61C81.2635 113.84 80.8417 114.136 80.4193 114.488L81.6997 116.024C82.0453 115.736 82.3595 115.52 82.6424 115.366L81.6846 113.61ZM80.4263 114.482C79.9819 114.846 79.6059 115.284 79.2958 115.788L80.9992 116.836C81.2011 116.508 81.4331 116.242 81.6927 116.03L80.4263 114.482ZM79.2958 115.788C78.9447 116.359 78.7635 116.988 78.7635 117.656H80.7635C80.7635 117.364 80.8383 117.097 80.9992 116.836L79.2958 115.788ZM78.7635 117.656C78.7635 118.614 79.0274 119.488 79.6114 120.207L81.1636 118.945C80.9156 118.64 80.7635 118.234 80.7635 117.656H78.7635ZM79.6349 120.235C80.1431 120.815 80.7496 121.348 81.446 121.835L82.593 120.197C82.0094 119.788 81.5279 119.361 81.1401 118.917L79.6349 120.235ZM81.446 121.835C82.096 122.29 82.7932 122.76 83.5372 123.246L84.6298 121.57C83.9018 121.096 83.223 120.638 82.593 120.197L81.446 121.835ZM83.5796 123.272C84.2446 123.66 84.8657 124.179 85.4409 124.84L86.9501 123.528C86.2453 122.717 85.4584 122.052 84.5874 121.544L83.5796 123.272ZM85.4409 124.84C85.9864 125.467 86.4589 126.284 86.8421 127.316L88.7169 126.62C88.2681 125.412 87.6846 124.373 86.9501 123.528L85.4409 124.84ZM86.8548 127.349C87.2363 128.275 87.4515 129.526 87.4515 131.144H89.4515C89.4515 129.37 89.2187 127.837 88.7042 126.587L86.8548 127.349Z" fill="#292929"/>
</g>
<defs>
<filter id="filter0_d" x="50.7183" y="106.621" width="42.2853" height="42.9899" filterUnits="userSpaceOnUse" color-interpolation-filters="sRGB">
<feFlood flood-opacity="0" result="BackgroundImageFix"/>
<feColorMatrix in="SourceAlpha" type="matrix" values="0 0 0 0 0 0 0 0 0 0 0 0 0 0 0 0 0 0 127 0"/>
<feOffset dy="5"/>
<feColorMatrix type="matrix" values="0 0 0 0 0 0 0 0 0 0 0 0 0 0 0 0 0 0 1 0"/>
<feBlend mode="normal" in2="BackgroundImageFix" result="effect1_dropShadow"/>
<feBlend mode="normal" in="SourceGraphic" in2="effect1_dropShadow" result="shape"/>
</filter>
</defs>
</svg>